<?xml version="1.0" encoding="iso-8859-1"?>
<!-- Generator: Adobe Illustrator 17.1.0, SVG Export Plug-In . SVG Version: 6.00 Build 0)  -->
<!DOCTYPE svg PUBLIC "-//W3C//DTD SVG 1.1//EN" "http://www.w3.org/Graphics/SVG/1.1/DTD/svg11.dtd">
<svg xmlns="http://www.w3.org/2000/svg" xmlns:xlink="http://www.w3.org/1999/xlink" version="1.1" id="Capa_1" x="0px" y="0px" viewBox="0 0 422.889 422.889" style="enable-background:new 0 0 422.889 422.889;" xml:space="preserve" width="512px" height="512px">
<g>
	<path d="M320.572,91.899c-0.911-3.685-3.962-6.161-7.59-6.161c-1.435,0-2.885,0.401-4.191,1.16L47.237,238.565   c-3.823,2.216-5.906,7.124-4.847,11.416l14.284,57.798c1.062,4.29,5.191,7.662,9.606,7.842l24.188,0.99   c0,0,3.143-0.083,4.298,3.211c3.519,10.031,7.259,20.026,14.652,28.055c10.999,11.947,25.992,18.895,42.218,19.565l73.656,3.041   c0.853,0.035,1.697,0.053,2.543,0.053c26.787,0,51.116-16.718,57.604-41.385c1.172-4.456,5.126-4.348,5.126-4.348l77.809,3.185   c0.126,0.005,0.25,0.008,0.374,0.008c2.543,0,4.854-1.088,6.341-2.986c1.495-1.909,1.998-4.437,1.381-6.936L320.572,91.899z    M226.323,345.504l-73.656-3.041c-9.554-0.395-18.381-4.485-24.857-11.52c-2.615-2.84-4.627-6.067-6.269-9.44   c-2.096-4.309,3.39-3.481,3.39-3.481l132.177,5.411c0,0,4.212-0.489,1.748,4.164C252.829,338.979,240.214,346.071,226.323,345.504z   " fill="#f5f5f5"/>
	<path d="M422.456,325.886l-64.83-262.321c-1.631-6.601-7.515-11.211-14.309-11.211c-1.189,0-2.383,0.146-3.545,0.433   c-3.824,0.945-7.052,3.323-9.087,6.695c-2.036,3.373-2.636,7.335-1.69,11.159l64.83,262.322c1.632,6.601,7.516,11.21,14.309,11.21   c1.189,0,2.383-0.146,3.545-0.433C419.572,341.79,424.407,333.78,422.456,325.886z" fill="#f5f5f5"/>
	<path d="M29.726,252.477c-1.668-6.751-7.686-11.466-14.634-11.466c-1.217,0-2.438,0.149-3.626,0.443   c-8.074,1.996-13.02,10.187-11.023,18.261l14.272,57.75c1.668,6.751,7.686,11.466,14.634,11.466c1.218,0,2.438-0.149,3.626-0.443   c3.911-0.966,7.212-3.398,9.294-6.847c2.082-3.449,2.696-7.502,1.729-11.414L29.726,252.477z" fill="#f5f5f5"/>
</g>
<g>
</g>
<g>
</g>
<g>
</g>
<g>
</g>
<g>
</g>
<g>
</g>
<g>
</g>
<g>
</g>
<g>
</g>
<g>
</g>
<g>
</g>
<g>
</g>
<g>
</g>
<g>
</g>
<g>
</g>
</svg>
