<?xml version="1.0" encoding="utf-8"?>
<!-- Generator: Adobe Illustrator 16.0.0, SVG Export Plug-In . SVG Version: 6.00 Build 0)  -->
<!DOCTYPE svg PUBLIC "-//W3C//DTD SVG 1.1//EN" "http://www.w3.org/Graphics/SVG/1.1/DTD/svg11.dtd">
<svg version="1.1" id="Layer_1" xmlns="http://www.w3.org/2000/svg" xmlns:xlink="http://www.w3.org/1999/xlink" x="0px" y="0px"
	 width="320px" height="406px" viewBox="0 0 320 406" enable-background="new 0 0 320 406" xml:space="preserve">
<path fill="none" d="M240.346,133.006c-52.7,19.557-70.342,45.284-67.581,52.998c1.601,4.468,39.486,14.531,85.583-2.572
	c31.647-11.742,52.361-30.465,61.652-42.698v-16.49C308.856,118.832,281.819,117.619,240.346,133.006z M228.016,173.65
	c-14.249,5.286-28.543,3.596-36.169-3.335c10.836-9.209,27.587-19.438,51.687-28.382c3.14-1.164,6.191-2.228,9.165-3.211
	c0.055,0.147,0.136,0.28,0.185,0.43C257.289,151.475,246.152,166.921,228.016,173.65z"/>
<path opacity="0.15" fill="#FFFFFF" d="M252.698,138.722c-2.974,0.983-6.025,2.047-9.165,3.211
	c-24.1,8.943-40.851,19.173-51.687,28.382c7.626,6.931,21.92,8.621,36.169,3.335c18.137-6.729,29.273-22.175,24.867-34.498
	C252.834,139.002,252.753,138.87,252.698,138.722z"/>
<path opacity="0.15" fill="#FFFFFF" d="M258.348,183.432c-46.097,17.103-83.982,7.041-85.583,2.572
	c-2.761-7.714,14.881-33.441,67.581-52.998c41.474-15.387,68.511-14.174,79.654-8.762v-20.308
	c-6.229-2.492-12.469-5.885-17.4-16.487c-27.079-58.269-41.152-80.395-85.398-79.48c-15.758,0.326-11.972-11.411-23.986-6.958
	c-12.006,4.455-1.703,10.972-13.985,21.048c-34.467,28.29-31.29,54.464-15.307,116.843c6.74,26.271-16.235,27.56-7.144,53.031
	c6.633,18.568,55.556,26.344,107.172,7.191c23.1-8.57,42.383-20.919,56.049-33.612v-24.777
	C310.709,152.967,289.995,171.69,258.348,183.432z"/>
</svg>
