<?xml version="1.0" encoding="utf-8"?>
<!-- Generator: Adobe Illustrator 16.0.0, SVG Export Plug-In . SVG Version: 6.00 Build 0)  -->
<!DOCTYPE svg PUBLIC "-//W3C//DTD SVG 1.1//EN" "http://www.w3.org/Graphics/SVG/1.1/DTD/svg11.dtd">
<svg version="1.1" id="Layer_2" xmlns="http://www.w3.org/2000/svg" xmlns:xlink="http://www.w3.org/1999/xlink" x="0px" y="0px"
	 width="1201.489px" height="690.273px" viewBox="0 0 1201.489 690.273" enable-background="new 0 0 1201.489 690.273"
	 xml:space="preserve">
<g>
	<path fill="#E81C64" d="M8,235.441c0,0-18-18,0-36s324-188,324-188s68-43.333,68,38.667s0,449.331,0,449.331
		s-0.102-34.364-59.935-69.704"/>
	<linearGradient id="SVGID_1_" gradientUnits="userSpaceOnUse" x1="106.3682" y1="669.373" x2="274.1574" y2="390.1248">
		<stop  offset="0.8" style="stop-color:#E81E62"/>
		<stop  offset="1" style="stop-color:#8C0038"/>
	</linearGradient>
	<path fill="url(#SVGID_1_)" d="M340.065,429.734L121.407,301.797v360.309c0,0,5.333,40.001,41.333,24.667
		s199.333-114.667,199.333-114.667s38.512-29.186,37.915-67.648v-5.316C399.815,495.737,396.684,463.176,340.065,429.734z"/>
</g>
<g>
	<path fill="#FFFFFF" d="M704.453,183.189c-209.275,0-209.275,322.415,0,322.415c45.847,0,82.082-13.311,102.048-23.662
		l14.053,109.442c-32.539,13.312-79.126,22.187-116.101,22.187c-358.65,0-357.91-536.867,0-536.867
		c36.975,0,72.471,6.654,104.265,20.703L796.15,206.113C776.184,195.762,750.3,183.189,704.453,183.189z"/>
	<path fill="#FFFFFF" d="M1085.387,183.189c-209.274,0-209.274,322.415,0,322.415c45.847,0,82.082-13.311,102.049-23.662
		l14.053,109.442c-32.538,13.312-79.125,22.187-116.102,22.187c-358.65,0-357.91-536.867,0-536.867
		c36.977,0,72.471,6.654,104.266,20.703l-12.568,108.707C1157.118,195.762,1131.234,183.189,1085.387,183.189z"/>
</g>
</svg>
