<?xml version="1.0" encoding="utf-8"?>
<!-- Generator: Adobe Illustrator 16.0.0, SVG Export Plug-In . SVG Version: 6.00 Build 0)  -->
<!DOCTYPE svg PUBLIC "-//W3C//DTD SVG 1.1//EN" "http://www.w3.org/Graphics/SVG/1.1/DTD/svg11.dtd">
<svg version="1.1" xmlns="http://www.w3.org/2000/svg" xmlns:xlink="http://www.w3.org/1999/xlink" x="0px" y="0px" width="200px"
	 height="162.667px" viewBox="0 0 200 162.667" enable-background="new 0 0 200 162.667" xml:space="preserve">
<g id="Layer_4">
	<g>
		<path fill-rule="evenodd" clip-rule="evenodd" fill="#83C1E8" d="M104.05,41.333c0.075,0.01,0.15,0.019,0.226,0.025
			c6.118,0.852,11.46,3.56,16.024,8.125c5.634,5.633,8.45,12.416,8.45,20.35v13.25c0.033,3.866,1.517,6.3,4.45,7.3
			c1.6,0.434,2.5,1.45,2.7,3.05c0.366,5.5-2.7,8.25-9.2,8.25h-8.25c4.934-0.399,7.75-2.366,8.45-5.899
			c0.566-2.733-0.65-4.917-3.65-6.55c-2.167-1.301-3.3-3.667-3.4-7.101v-13.75c0-8.233-2.8-15.267-8.399-21.1
			C108.95,44.717,106.483,42.733,104.05,41.333z M103.725,88.483c0.017,0.178,0.025,0.361,0.025,0.55c0,0.033,0,0.066,0,0.1
			c-0.023,0.99-0.391,1.841-1.1,2.55c-0.733,0.733-1.617,1.101-2.65,1.101s-1.917-0.367-2.65-1.101
			c-0.709-0.709-1.076-1.56-1.1-2.55c0-0.033,0-0.066,0-0.1c0-0.188,0.008-0.372,0.025-0.55c0.117-0.801,0.476-1.501,1.075-2.101
			c0.733-0.733,1.617-1.1,2.65-1.1s1.917,0.366,2.65,1.1C103.25,86.982,103.608,87.683,103.725,88.483z"/>
		<path fill-rule="evenodd" clip-rule="evenodd" fill="#ACDAFE" d="M118.45,101.683h-10.275c-0.347,1.812-1.088,3.411-2.225,4.801
			c-1.634,2.033-3.617,3.05-5.95,3.05c-2.333,0-4.317-1.017-5.95-3.05c-1.137-1.39-1.87-2.989-2.2-4.801H81.2
			c-0.561-0.03-1.094-0.08-1.6-0.149c-0.135-0.02-0.269-0.045-0.4-0.075c-2.393-0.403-4.143-1.312-5.25-2.725
			c-0.148-0.191-0.282-0.392-0.4-0.601c-0.385-0.633-0.66-1.35-0.825-2.149c-0.564-2.723,0.661-4.914,3.675-6.575
			c2.181-1.277,3.314-3.636,3.4-7.075v-13.75c0-8.233,2.8-15.267,8.4-21.1c2.484-2.58,4.951-4.563,7.4-5.95
			c0.119-0.071,0.235-0.138,0.35-0.2c1.606-0.167,2.957-0.25,4.05-0.25c1.102,0,2.451,0.083,4.05,0.25c2.434,1.4,4.9,3.384,7.4,5.95
			c5.6,5.833,8.399,12.866,8.399,21.1v13.75c0.101,3.434,1.233,5.8,3.4,7.101c3,1.633,4.217,3.816,3.65,6.55
			C126.2,99.316,123.384,101.283,118.45,101.683z M103.725,88.483c-0.116-0.801-0.475-1.501-1.074-2.101
			c-0.733-0.733-1.617-1.1-2.65-1.1s-1.917,0.366-2.65,1.1c-0.6,0.6-0.958,1.3-1.075,2.101c-0.017,0.178-0.025,0.361-0.025,0.55
			c0,0.033,0,0.066,0,0.1c0.024,0.99,0.391,1.841,1.1,2.55c0.733,0.733,1.617,1.101,2.65,1.101s1.917-0.367,2.65-1.101
			c0.709-0.709,1.076-1.56,1.1-2.55c0-0.033,0-0.066,0-0.1C103.75,88.845,103.741,88.661,103.725,88.483z"/>
		<path fill-rule="evenodd" clip-rule="evenodd" fill="#DDF0FF" d="M81.2,101.683h-8c-0.067,0-0.134,0-0.2,0
			c-0.784-0.009-1.518-0.059-2.2-0.149c-4.854-0.638-7.121-3.337-6.8-8.101c0.189-1.598,1.089-2.614,2.7-3.05
			c2.941-1.004,4.458-3.438,4.55-7.3v-13.25c0-7.934,2.8-14.717,8.4-20.35c4.404-4.379,9.838-7.096,16.3-8.15
			c-0.115,0.063-0.231,0.129-0.35,0.2c-2.449,1.387-4.916,3.37-7.4,5.95c-5.6,5.833-8.4,12.866-8.4,21.1v13.75
			c-0.086,3.439-1.219,5.798-3.4,7.075c-3.014,1.661-4.239,3.853-3.675,6.575c0.165,0.8,0.439,1.517,0.825,2.149
			c0.119,0.209,0.252,0.409,0.4,0.601c1.107,1.413,2.857,2.321,5.25,2.725c0.131,0.03,0.265,0.056,0.4,0.075
			C80.106,101.603,80.64,101.652,81.2,101.683z"/>
	</g>
</g>
<g id="Layer_2">
	<g>
		
			<path fill-rule="evenodd" clip-rule="evenodd" fill="none" stroke="#124266" stroke-width="2" stroke-linecap="round" stroke-linejoin="round" stroke-miterlimit="3" d="
			M83.9,79.383c3.233-4.7,6.533-4.7,9.9,0 M96.25,89.033c0-0.188,0.008-0.372,0.025-0.55c0.117-0.801,0.476-1.501,1.075-2.101
			c0.733-0.733,1.617-1.1,2.65-1.1s1.917,0.366,2.65,1.1c0.6,0.6,0.958,1.3,1.074,2.101c0.017,0.178,0.025,0.361,0.025,0.55
			 M116.1,79.383c-3.233-4.7-6.533-4.7-9.899,0"/>
		
			<path fill-rule="evenodd" clip-rule="evenodd" fill="none" stroke="#124266" stroke-width="3" stroke-linecap="round" stroke-linejoin="round" stroke-miterlimit="3" d="
			M128.775,83.933c-0.015-0.274-0.022-0.558-0.025-0.85v-13.25c0-7.934-2.816-14.717-8.45-20.35
			c-4.564-4.565-9.906-7.273-16.024-8.125c-0.075-0.007-0.15-0.016-0.226-0.025c-1.599-0.167-2.948-0.25-4.05-0.25
			c-1.093,0-2.443,0.083-4.05,0.25c-0.125,0.021-0.25,0.046-0.375,0.075c-4.942,0.855-9.275,2.696-13,5.524 M95.95,41.333
			c-0.067-0.285-0.1-0.585-0.1-0.9c0-1.133,0.4-2.116,1.2-2.949c0.833-0.8,1.817-1.2,2.95-1.2c1.134,0,2.1,0.4,2.9,1.2
			c0.833,0.833,1.25,1.816,1.25,2.949c0,0.315-0.034,0.615-0.101,0.9 M79.2,49.933c-1.566,1.639-2.9,3.372-4,5.2 M72.5,61.133
			c-0.833,2.728-1.25,5.628-1.25,8.7v13.25c-0.091,3.862-1.608,6.296-4.55,7.3c-1.611,0.436-2.511,1.452-2.7,3.05
			c-0.321,4.764,1.946,7.463,6.8,8.101c0.322,0.043,0.655,0.076,1,0.1 M129.975,87.933c0.184,0.288,0.393,0.555,0.625,0.801
			c0.672,0.737,1.538,1.288,2.601,1.649c1.6,0.434,2.5,1.45,2.7,3.05c0.366,5.5-2.7,8.25-9.2,8.25h-18.525
			c-0.347,1.812-1.088,3.411-2.225,4.801c-1.634,2.033-3.617,3.05-5.95,3.05c-2.333,0-4.317-1.017-5.95-3.05
			c-1.137-1.39-1.87-2.989-2.2-4.801H79.4 M91.85,101.683h16.325"/>
	</g>
</g>
<g id="Layer_5">
	<path opacity="0.25" fill-rule="evenodd" clip-rule="evenodd" fill="#124266" fill-opacity="0.749" d="M65.65,30.833
		c-0.5-0.5-0.75-1.117-0.75-1.85s0.25-1.367,0.75-1.9c0.533-0.5,1.167-0.75,1.9-0.75c0.733,0,1.35,0.25,1.85,0.75
		c0.533,0.533,0.8,1.167,0.8,1.9s-0.267,1.35-0.8,1.85c-0.5,0.533-1.117,0.8-1.85,0.8C66.817,31.633,66.183,31.366,65.65,30.833z
		 M83.8,33.283c0.333,0,0.617,0.117,0.85,0.35c0.233,0.233,0.35,0.517,0.35,0.85c0,0.333-0.117,0.617-0.35,0.85
		s-0.517,0.35-0.85,0.35c-0.333,0-0.617-0.117-0.85-0.35c-0.233-0.233-0.35-0.517-0.35-0.85c0-0.333,0.117-0.617,0.35-0.85
		C83.183,33.4,83.467,33.283,83.8,33.283z M137.9,33.333c0,0.5-0.184,0.933-0.551,1.3c-0.366,0.367-0.8,0.55-1.3,0.55
		s-0.934-0.184-1.3-0.55s-0.55-0.8-0.55-1.3s0.184-0.933,0.55-1.3s0.8-0.55,1.3-0.55s0.934,0.184,1.3,0.55
		C137.717,32.4,137.9,32.833,137.9,33.333z"/>
	<path fill-rule="evenodd" clip-rule="evenodd" fill="#124266" fill-opacity="0.498" d="M115.7,18.083
		c-0.533,0.533-1.167,0.8-1.9,0.8s-1.366-0.267-1.899-0.8c-0.534-0.533-0.801-1.167-0.801-1.9s0.267-1.367,0.801-1.9
		c0.533-0.534,1.166-0.8,1.899-0.8s1.367,0.267,1.9,0.8c0.533,0.533,0.8,1.167,0.8,1.9S116.233,17.55,115.7,18.083z M112.55,34.733
		c-0.3,0.3-0.649,0.45-1.05,0.45s-0.75-0.15-1.05-0.45c-0.3-0.3-0.45-0.65-0.45-1.05s0.15-0.75,0.45-1.05
		c0.3-0.3,0.649-0.45,1.05-0.45s0.75,0.15,1.05,0.45c0.3,0.3,0.45,0.65,0.45,1.05S112.85,34.433,112.55,34.733z M140.65,72.733
		c-0.4,0.433-0.9,0.649-1.5,0.649c-0.601,0-1.117-0.217-1.551-0.649c-0.399-0.4-0.6-0.9-0.6-1.5c0-0.601,0.2-1.117,0.6-1.551
		c0.434-0.399,0.95-0.6,1.551-0.6c0.6,0,1.1,0.2,1.5,0.6c0.433,0.434,0.649,0.95,0.649,1.551
		C141.3,71.833,141.083,72.333,140.65,72.733z M61.8,64.183c-0.3,0.334-0.683,0.5-1.15,0.5s-0.867-0.166-1.2-0.5
		c-0.3-0.3-0.45-0.683-0.45-1.149s0.15-0.867,0.45-1.2c0.333-0.3,0.733-0.45,1.2-0.45s0.85,0.15,1.15,0.45
		c0.333,0.333,0.5,0.733,0.5,1.2S62.133,63.883,61.8,64.183z"/>
	<path fill-rule="evenodd" clip-rule="evenodd" fill="#124266" fill-opacity="0.2471" d="M103.4,25.933
		c0,0.333-0.117,0.617-0.351,0.85c-0.233,0.233-0.517,0.35-0.85,0.35c-0.334,0-0.617-0.117-0.851-0.35
		c-0.233-0.233-0.35-0.517-0.35-0.85c0-0.333,0.116-0.617,0.35-0.85s0.517-0.35,0.851-0.35c0.333,0,0.616,0.117,0.85,0.35
		S103.4,25.6,103.4,25.933z M126.4,27.533c0,0.4-0.134,0.733-0.4,1c-0.267,0.267-0.6,0.4-1,0.4s-0.733-0.133-1-0.4
		c-0.267-0.267-0.4-0.6-0.4-1c0-0.4,0.134-0.733,0.4-1c0.267-0.267,0.6-0.4,1-0.4s0.733,0.133,1,0.4
		C126.267,26.8,126.4,27.133,126.4,27.533z"/>
	<path fill-rule="evenodd" clip-rule="evenodd" fill="#D1D4D9" d="M100,127.933c9.366,0,17.35,0.167,23.95,0.5
		c6.633,0.334,9.95,0.733,9.95,1.2s-3.317,0.867-9.95,1.2c-6.601,0.333-14.584,0.5-23.95,0.5c-9.367,0-17.367-0.167-24-0.5
		c-6.6-0.333-9.9-0.733-9.9-1.2s3.3-0.866,9.9-1.2C82.633,128.1,90.633,127.933,100,127.933z"/>
	<g opacity="0.5">
		<path fill="#124266" d="M127.589,52.363h2.221v0.959h-4.128l2.372-3.837h-2.034v-0.959h3.947L127.589,52.363z"/>
	</g>
	<g opacity="0.75">
		<path fill="#124266" d="M138.044,42.295h3.479v1.503h-6.468l3.717-6.013h-3.188v-1.502h6.186L138.044,42.295z"/>
	</g>
	<g>
		<path fill="#124266" d="M151.854,30.262h5.596v2.417h-10.4l5.977-9.668h-5.127v-2.417h9.946L151.854,30.262z"/>
	</g>
	<g>
		<path fill="#124266" d="M81.004,12.527l-2.887,1.039l1.671,2.508l-1.671,1.14l-1.773-2.305l-1.773,2.305l-1.672-1.14l1.672-2.508
			l-2.888-1.039l0.659-2.026l2.888,0.887l0.025-2.963h2.178l0.025,2.963l2.888-0.887L81.004,12.527z"/>
	</g>
	<g>
		<path fill="#124266" d="M62.122,42.516l-1.811,0.65l1.048,1.573l-1.048,0.715L59.2,44.009l-1.112,1.445l-1.048-0.715l1.048-1.573
			l-1.811-0.65l0.413-1.271l1.811,0.557l0.016-1.858h1.366l0.016,1.858l1.811-0.557L62.122,42.516z"/>
	</g>
	<g>
		<path fill="#79818C" d="M57.242,149.274l1.559-4.072h1.301l-2.297,5.455v3.076h-1.16v-3.164l-2.262-5.367h1.301L57.242,149.274z"
			/>
		<path fill="#79818C" d="M60.318,150.165c0-0.859,0.205-1.556,0.615-2.089s0.986-0.8,1.729-0.8c0.746,0,1.324,0.267,1.734,0.8
			s0.615,1.229,0.615,2.089v0.809c0,0.867-0.204,1.563-0.612,2.089s-0.983,0.788-1.726,0.788c-0.75,0-1.33-0.264-1.74-0.791
			s-0.615-1.223-0.615-2.086V150.165z M61.496,150.974c0,0.594,0.094,1.072,0.281,1.436s0.486,0.545,0.896,0.545
			c0.398,0,0.692-0.183,0.882-0.548s0.284-0.843,0.284-1.433v-0.809c0-0.586-0.096-1.062-0.287-1.427s-0.488-0.548-0.891-0.548
			c-0.406,0-0.702,0.183-0.888,0.548s-0.278,0.841-0.278,1.427V150.974z"/>
		<path fill="#79818C" d="M69.306,152.925h-0.012c-0.16,0.301-0.361,0.53-0.604,0.688s-0.523,0.237-0.844,0.237
			c-0.555,0-0.982-0.216-1.283-0.647s-0.451-1.12-0.451-2.065v-3.744h1.172v3.756c0,0.664,0.068,1.127,0.205,1.389
			s0.352,0.393,0.645,0.393c0.273,0,0.5-0.065,0.68-0.196s0.324-0.321,0.434-0.571v-4.77h1.172v6.34h-1.037L69.306,152.925z"/>
		<path fill="#79818C" d="M75.441,148.144l0.018,0.006c0.164-0.273,0.364-0.487,0.601-0.642s0.503-0.231,0.8-0.231
			c0.551,0,0.975,0.206,1.271,0.618s0.445,1.065,0.445,1.96v3.879h-1.172v-3.891c0-0.598-0.077-1.021-0.231-1.269
			s-0.394-0.372-0.718-0.372c-0.219,0-0.413,0.065-0.583,0.196s-0.313,0.313-0.431,0.548v4.787h-1.178v-9.141h1.178V148.144z"/>
		<path fill="#79818C" d="M82.947,153.733c-0.039-0.145-0.072-0.282-0.1-0.413s-0.047-0.259-0.059-0.384l-0.012-0.006
			c-0.164,0.27-0.367,0.49-0.609,0.662s-0.514,0.258-0.814,0.258c-0.523,0-0.927-0.165-1.21-0.495s-0.425-0.784-0.425-1.362
			c0-0.617,0.192-1.096,0.577-1.436s0.938-0.51,1.661-0.51h0.814v-0.65c0-0.395-0.077-0.698-0.231-0.911s-0.378-0.319-0.671-0.319
			c-0.27,0-0.48,0.095-0.633,0.284s-0.229,0.437-0.229,0.741l-1.178-0.006c0-0.52,0.193-0.968,0.58-1.345s0.898-0.565,1.535-0.565
			c0.605,0,1.091,0.181,1.456,0.542s0.548,0.892,0.548,1.591v2.941c0,0.242,0.015,0.476,0.044,0.7s0.075,0.452,0.138,0.683H82.947z
			 M81.623,152.937c0.258,0,0.488-0.077,0.691-0.231s0.355-0.353,0.457-0.595v-1.324h-0.832c-0.34,0-0.6,0.115-0.779,0.346
			s-0.27,0.516-0.27,0.855c0,0.289,0.063,0.52,0.188,0.691S81.384,152.937,81.623,152.937z"/>
		<path fill="#79818C" d="M86.955,151.829l0.094,0.504h0.018l0.1-0.504l0.99-4.436h1.213l-1.793,6.34h-1.043l-1.805-6.34h1.219
			L86.955,151.829z"/>
		<path fill="#79818C" d="M92.275,153.851c-0.715,0-1.281-0.257-1.699-0.771s-0.627-1.187-0.627-2.019v-0.926
			c0-0.844,0.207-1.531,0.621-2.063s0.953-0.797,1.617-0.797c0.703,0,1.236,0.241,1.6,0.724s0.545,1.146,0.545,1.989v0.82h-3.205
			v0.252c0,0.563,0.102,1.019,0.305,1.368s0.51,0.524,0.92,0.524c0.375,0,0.675-0.053,0.899-0.158s0.419-0.256,0.583-0.451
			l0.334,0.762c-0.191,0.23-0.446,0.412-0.765,0.545S92.708,153.851,92.275,153.851z M92.187,148.19
			c-0.32,0-0.572,0.164-0.756,0.492s-0.285,0.754-0.305,1.277h2.045v-0.24c0-0.457-0.081-0.826-0.243-1.107
			S92.519,148.19,92.187,148.19z"/>
		<path fill="#79818C" d="M98.984,147.394l0.064,0.855h0.018c0.16-0.309,0.364-0.548,0.612-0.718s0.533-0.255,0.853-0.255
			c0.539,0,0.953,0.198,1.244,0.595s0.438,1.03,0.438,1.901v3.961h-1.178v-3.949c0-0.59-0.076-1.001-0.227-1.233
			s-0.389-0.349-0.717-0.349c-0.223,0-0.418,0.07-0.586,0.211s-0.309,0.336-0.422,0.586v4.734h-1.178v-6.34H98.984z"/>
		<path fill="#79818C" d="M103.314,150.165c0-0.859,0.205-1.556,0.615-2.089s0.986-0.8,1.729-0.8c0.746,0,1.324,0.267,1.734,0.8
			s0.615,1.229,0.615,2.089v0.809c0,0.867-0.205,1.563-0.613,2.089s-0.982,0.788-1.725,0.788c-0.75,0-1.33-0.264-1.74-0.791
			s-0.615-1.223-0.615-2.086V150.165z M104.492,150.974c0,0.594,0.094,1.072,0.281,1.436s0.486,0.545,0.896,0.545
			c0.398,0,0.691-0.183,0.881-0.548s0.285-0.843,0.285-1.433v-0.809c0-0.586-0.096-1.062-0.287-1.427s-0.488-0.548-0.891-0.548
			c-0.406,0-0.703,0.183-0.889,0.548s-0.277,0.841-0.277,1.427V150.974z"/>
		<path fill="#79818C" d="M113.768,152.954c0.281,0,0.521-0.113,0.721-0.34s0.291-0.537,0.275-0.932h1.102
			c0.016,0.625-0.184,1.143-0.598,1.553s-0.908,0.615-1.482,0.615c-0.77,0-1.35-0.263-1.74-0.788s-0.586-1.21-0.586-2.054v-0.873
			c0-0.844,0.195-1.531,0.588-2.063s0.971-0.797,1.732-0.797c0.637,0,1.146,0.212,1.529,0.636s0.568,0.997,0.557,1.72h-1.102
			c0.012-0.438-0.074-0.787-0.256-1.049s-0.428-0.393-0.74-0.393c-0.43,0-0.727,0.179-0.889,0.536s-0.242,0.827-0.242,1.409v0.873
			c0,0.594,0.08,1.066,0.24,1.418S113.334,152.954,113.768,152.954z"/>
		<path fill="#79818C" d="M119.949,153.733c-0.039-0.145-0.072-0.282-0.1-0.413s-0.047-0.259-0.059-0.384l-0.012-0.006
			c-0.164,0.27-0.367,0.49-0.609,0.662s-0.514,0.258-0.814,0.258c-0.523,0-0.928-0.165-1.211-0.495s-0.424-0.784-0.424-1.362
			c0-0.617,0.191-1.096,0.576-1.436s0.939-0.51,1.662-0.51h0.814v-0.65c0-0.395-0.078-0.698-0.232-0.911s-0.377-0.319-0.67-0.319
			c-0.27,0-0.48,0.095-0.633,0.284s-0.229,0.437-0.229,0.741l-1.178-0.006c0-0.52,0.193-0.968,0.58-1.345s0.898-0.565,1.535-0.565
			c0.605,0,1.09,0.181,1.455,0.542s0.549,0.892,0.549,1.591v2.941c0,0.242,0.014,0.476,0.043,0.7s0.076,0.452,0.139,0.683H119.949z
			 M118.625,152.937c0.258,0,0.488-0.077,0.691-0.231s0.355-0.353,0.457-0.595v-1.324h-0.832c-0.34,0-0.6,0.115-0.779,0.346
			s-0.27,0.516-0.27,0.855c0,0.289,0.063,0.52,0.188,0.691S118.387,152.937,118.625,152.937z"/>
		<path fill="#79818C" d="M123.518,153.733h-1.172v-9.141h1.172V153.733z"/>
		<path fill="#79818C" d="M126.172,153.733H125v-9.141h1.172V153.733z"/>
		<path fill="#79818C" d="M129.676,152.954c0.281,0,0.521-0.113,0.721-0.34s0.291-0.537,0.275-0.932h1.102
			c0.016,0.625-0.184,1.143-0.598,1.553s-0.908,0.615-1.482,0.615c-0.77,0-1.35-0.263-1.74-0.788s-0.586-1.21-0.586-2.054v-0.873
			c0-0.844,0.195-1.531,0.588-2.063s0.971-0.797,1.732-0.797c0.637,0,1.146,0.212,1.529,0.636s0.568,0.997,0.557,1.72h-1.102
			c0.012-0.438-0.074-0.787-0.256-1.049s-0.428-0.393-0.74-0.393c-0.43,0-0.727,0.179-0.889,0.536s-0.242,0.827-0.242,1.409v0.873
			c0,0.594,0.08,1.066,0.24,1.418S129.242,152.954,129.676,152.954z"/>
		<path fill="#79818C" d="M135.857,153.733c-0.039-0.145-0.072-0.282-0.1-0.413s-0.047-0.259-0.059-0.384l-0.012-0.006
			c-0.164,0.27-0.367,0.49-0.609,0.662s-0.514,0.258-0.814,0.258c-0.523,0-0.928-0.165-1.211-0.495s-0.424-0.784-0.424-1.362
			c0-0.617,0.191-1.096,0.576-1.436s0.939-0.51,1.662-0.51h0.814v-0.65c0-0.395-0.078-0.698-0.232-0.911s-0.377-0.319-0.67-0.319
			c-0.27,0-0.48,0.095-0.633,0.284s-0.229,0.437-0.229,0.741l-1.178-0.006c0-0.52,0.193-0.968,0.58-1.345s0.898-0.565,1.535-0.565
			c0.605,0,1.09,0.181,1.455,0.542s0.549,0.892,0.549,1.591v2.941c0,0.242,0.014,0.476,0.043,0.7s0.076,0.452,0.139,0.683H135.857z
			 M134.533,152.937c0.258,0,0.488-0.077,0.691-0.231s0.355-0.353,0.457-0.595v-1.324h-0.832c-0.34,0-0.6,0.115-0.779,0.346
			s-0.27,0.516-0.27,0.855c0,0.289,0.063,0.52,0.188,0.691S134.295,152.937,134.533,152.937z"/>
		<path fill="#79818C" d="M140.791,148.396l-0.545-0.029c-0.223,0-0.406,0.069-0.551,0.208s-0.258,0.339-0.34,0.601v4.559h-1.178
			v-6.34h1.078l0.076,0.885h0.018c0.125-0.316,0.283-0.563,0.477-0.738s0.424-0.264,0.689-0.264c0.074,0,0.148,0.007,0.225,0.021
			s0.141,0.03,0.191,0.05L140.791,148.396z"/>
		<path fill="#79818C" d="M141.447,150.64c0-1.035,0.172-1.854,0.516-2.458s0.838-0.905,1.482-0.905c0.277,0,0.52,0.061,0.729,0.182
			s0.393,0.297,0.549,0.527l0.018-0.006v-3.387h1.178v9.141h-1.025l-0.082-0.674l-0.018-0.006c-0.16,0.262-0.352,0.46-0.574,0.595
			s-0.484,0.202-0.785,0.202c-0.641,0-1.133-0.276-1.475-0.829s-0.512-1.306-0.512-2.259V150.64z M142.619,150.763
			c0,0.68,0.086,1.211,0.26,1.594s0.457,0.574,0.848,0.574c0.238,0,0.439-0.065,0.604-0.196s0.301-0.319,0.41-0.565v-3.152
			c-0.109-0.258-0.246-0.458-0.41-0.601s-0.361-0.214-0.592-0.214c-0.391,0-0.676,0.221-0.854,0.662s-0.266,1.033-0.266,1.775
			V150.763z"/>
	</g>
</g>
</svg>
