<?xml version="1.0" encoding="utf-8"?>
<!-- Generator: Adobe Illustrator 16.0.0, SVG Export Plug-In . SVG Version: 6.00 Build 0)  -->
<!DOCTYPE svg PUBLIC "-//W3C//DTD SVG 1.1//EN" "http://www.w3.org/Graphics/SVG/1.1/DTD/svg11.dtd">
<svg version="1.1" id="Layer_1" xmlns="http://www.w3.org/2000/svg" xmlns:xlink="http://www.w3.org/1999/xlink" x="0px" y="0px"
	 width="40px" height="40px" viewBox="236.198 236.198 40 40" enable-background="new 236.198 236.198 40 40" xml:space="preserve">
<g>
	<g>
		<path fill="#E0E0E0" d="M256.181,276.199c11.024,0,20.017-8.958,20.017-20.018s-8.957-19.983-20.017-19.983
			s-19.983,8.958-19.983,19.983C236.198,267.206,245.156,276.199,256.181,276.199z M256.181,238.989
			c9.475,0,17.192,7.718,17.192,17.192s-7.718,17.192-17.192,17.192s-17.192-7.718-17.192-17.192S246.706,238.989,256.181,238.989z"
			/>
		<path fill="#E0E0E0" d="M258.075,266.173c0.276,0.275,0.62,0.413,0.999,0.413c0.345,0,0.724-0.138,1-0.413
			c0.551-0.551,0.551-1.447,0-1.998l-8.097-8.097l8.097-8.097c0.551-0.551,0.551-1.447,0-1.998c-0.552-0.551-1.447-0.551-1.999,0
			l-9.095,9.096c-0.276,0.275-0.414,0.62-0.414,0.999s0.138,0.724,0.414,0.999L258.075,266.173z"/>
	</g>
</g>
</svg>
