<?xml version="1.0" encoding="utf-8"?>
<!-- Generator: Adobe Illustrator 16.0.0, SVG Export Plug-In . SVG Version: 6.00 Build 0)  -->
<!DOCTYPE svg PUBLIC "-//W3C//DTD SVG 1.1//EN" "http://www.w3.org/Graphics/SVG/1.1/DTD/svg11.dtd">
<svg version="1.1" id="Layer_4" xmlns="http://www.w3.org/2000/svg" xmlns:xlink="http://www.w3.org/1999/xlink" x="0px" y="0px"
	 width="255.998px" height="266.797px" viewBox="0 0 255.998 266.797" enable-background="new 0 0 255.998 266.797"
	 xml:space="preserve">
<path fill="#FFFFFF" d="M255.942,106.291c-0.873-8.954-3.93-14.194-4.803-15.505s-8.518-9.609-13.541,1.965
	c-5.021,11.574,5.461,12.666-3.492,13.977l-13.733-49.026c0,0-2.947-14.482-28.494-14.39C179.642,43.356,128,43.616,128,43.616
	s-51.643-0.26-63.879-0.305c-25.548-0.092-28.496,14.39-28.496,14.39l-13.732,49.026c-8.953-1.311,1.528-2.402-3.494-13.977
	C13.376,81.176,5.733,89.475,4.86,90.785c-0.874,1.311-3.932,6.551-4.805,15.505c-0.874,8.954,8.953,9.608,8.953,9.608h9.391
	l-12.91,68.545c0,0-3.493,14.658,0,32.019c3.494,17.359,22.275,21.074,22.275,21.074v21.398c0,4.342,3.52,7.861,7.861,7.861h21.838
	c4.342,0,7.861-3.521,7.861-7.861v-8.953l-13.758-1.527v-7.849c24.629,0.563,50.199,0.86,76.434,0.86
	c26.231,0,51.806-0.297,76.433-0.86v7.849l-13.759,1.527v8.953c0,4.342,3.521,7.861,7.861,7.861h21.838
	c4.342,0,7.86-3.521,7.86-7.861v-21.398c0,0,18.781-3.715,22.275-21.074s0-32.019,0-32.019l-12.91-68.545h9.392
	C246.99,115.899,256.817,115.245,255.942,106.291z M32.288,95.601l9.802-34.978c1.25-4.458,5.688-8.063,9.914-8.053L128,52.764
	l75.994-0.194c4.228-0.011,8.666,3.594,9.914,8.053l9.803,34.978c1.248,4.459-1.164,8.081-5.39,8.093L128,103.924l-90.322-0.23
	C33.451,103.682,31.039,100.06,32.288,95.601z M64.912,198.446c-8.998,6.576-41.273-2.619-41.273-2.619s-4.076-1.748-4.076-6.382
	l2.33-17.858c0,0,1.528-5.023,6.114-3.059s39.09,16.379,39.09,16.379S76.269,190.147,64.912,198.446z M179.666,184.898h-39.167
	v39.167h-25v-39.167H76.332v-25h39.167v-39.166h25v39.166h39.167V184.898z M232.358,195.827c0,0-32.274,9.195-41.272,2.619
	c-11.354-8.299-2.185-13.539-2.185-13.539s34.504-14.412,39.091-16.379c4.586-1.966,6.114,3.059,6.114,3.059l2.328,17.858
	C236.437,194.079,232.358,195.827,232.358,195.827z"/>
<path fill="#FFFFFF" d="M143.504,28.594l-1.746-14.304c0-7.717-6.11-14.003-13.758-14.29c-7.647,0.287-13.758,6.573-13.758,14.29
	l-1.748,14.304H128H143.504z"/>
</svg>
