<?xml version="1.0" encoding="iso-8859-1"?>
<!-- Generator: Adobe Illustrator 19.0.0, SVG Export Plug-In . SVG Version: 6.00 Build 0)  -->
<svg xmlns="http://www.w3.org/2000/svg" xmlns:xlink="http://www.w3.org/1999/xlink" version="1.1" id="Layer_1" x="0px" y="0px" viewBox="0 0 461.8 461.8" style="enable-background:new 0 0 461.8 461.8;" xml:space="preserve" width="512px" height="512px">
<g>
	<g>
		<g>
			<circle cx="71.388" cy="105.417" r="24.448" fill="#FFFFFF"/>
			<circle cx="437.352" cy="105.417" r="24.448" fill="#FFFFFF"/>
			<path d="M442.931,251.638l7.434-90.439c0.809-9.848-6.518-18.488-16.366-19.298l-31.8-2.614     c-9.848-0.81-18.488,6.518-19.298,16.366l-0.255,3.102l23.275-5.384l-31.65,17.381c-2.597,1.426-4.567,3.771-5.525,6.575     l-17.075,50.005c-1.105,3.236-0.723,6.613,0.764,9.412c-4.58,0-173.461,0-234.265,0c1.301-4.697-0.376-9.906-4.587-12.878     l-39.404-27.817l-6.768-30.768l11.634,21.737l3.057,2.158l2.3-27.977c0.81-9.848-6.518-18.488-16.366-19.298l-31.8-2.614     c-9.848-0.81-18.488,6.518-19.298,16.366l-5.651,91.644l7.495,48.862l-18.271,66.64c-2.082,7.594,2.386,15.438,9.98,17.52     c7.593,2.082,15.439-2.387,17.52-9.98l19.073-69.568c0.529-1.932,0.646-3.952,0.343-5.931l-6.924-45.14l5.547,0.456     l17.008,46.371L48.85,363.616c-1.631,7.704,3.291,15.271,10.994,16.902c7.713,1.632,15.273-3.299,16.902-10.994l15.057-71.102     c0.555-2.622,0.36-5.348-0.563-7.863l-14.275-38.92l0.938-11.405c-11.535-8.143-25.659-18.115-30.741-21.702     c-3.569-2.52-5.375-6.628-5.149-10.691l2.188-37.454l7.758,35.266c0.636,2.893,2.331,5.445,4.752,7.154l43.167,30.475     c1.794,1.267,3.819,1.963,5.86,2.132c-0.093,0.559-0.153,1.128-0.153,1.713c0,5.765,4.721,10.38,10.38,10.38h237.424     c5.765,0,10.38-4.717,10.38-10.38c0-1.444-0.296-2.819-0.83-4.069c4.932-0.01,9.536-3.115,11.219-8.044l15.587-45.647     l27.614-15.165l-17.578,17.288l-15.986,46.815c-1.255,3.675-3.437,6.962-6.459,9.566l7.407,48.291l-18.268,66.637     c-2.082,7.594,2.386,15.438,9.98,17.52c7.593,2.082,15.439-2.387,17.52-9.98l19.073-69.568c0.529-1.932,0.646-3.952,0.343-5.931     l-6.923-45.14l5.547,0.456l17.008,46.371l-14.208,67.089c-1.631,7.704,3.291,15.271,10.994,16.902     c7.713,1.632,15.273-3.299,16.902-10.994l15.057-71.102c0.555-2.622,0.36-5.348-0.563-7.863L442.931,251.638z" fill="#FFFFFF"/>
			<path d="M185.505,224.197l17.795,0.11l-19.516-20.161l33.837,21.737c2.741,1.76,6.249,1.945,9.021,0.713l12.599-5.525     l22.438-9.84c4.839-2.121,7.05-7.769,4.924-12.615c-2.139-4.879-7.833-7.02-12.615-4.924l-30.335,13.302l-30.641-19.684     l30.162,9.856l27.123-11.894c9.484-4.159,20.563,0.157,24.726,9.651c4.145,9.451-0.126,20.551-9.651,24.726     c-6.361,2.789-4.878,2.139-11.335,4.971c9.367,0.058,10.263,0.216,12.913-0.366c5.238,0.158,9.91-3.023,11.723-7.86     l14.884-39.723c9.013,11.353,31.009,39.061,33.967,42.787c4.175,5.26,11.81,6.112,17.04,1.958     c5.278-4.189,6.083-11.844,1.958-17.039l-47.299-59.58c-2.718-3.424-7.065-5.118-11.386-4.44c-4.318,0.68-7.936,3.631-9.47,7.725     c-4.781,12.76-6.873,18.343-11.665,31.131l-80.504-2.979c-6.691-0.25-12.276,5.09-12.325,11.79l-0.178,24.198     C173.644,218.789,178.936,224.156,185.505,224.197z" fill="#FFFFFF"/>
			<path d="M140.663,223.44c12.449,0.077,22.536-9.975,22.613-22.334c0.077-12.354-9.878-22.536-22.334-22.613     c-12.412-0.077-22.536,9.923-22.613,22.334C118.252,213.239,128.252,223.363,140.663,223.44z" fill="#FFFFFF"/>
		</g>
	</g>
</g>
<g>
</g>
<g>
</g>
<g>
</g>
<g>
</g>
<g>
</g>
<g>
</g>
<g>
</g>
<g>
</g>
<g>
</g>
<g>
</g>
<g>
</g>
<g>
</g>
<g>
</g>
<g>
</g>
<g>
</g>
</svg>
