<?xml version="1.0" encoding="iso-8859-1"?>
<!-- Generator: Adobe Illustrator 18.0.0, SVG Export Plug-In . SVG Version: 6.00 Build 0)  -->
<!DOCTYPE svg PUBLIC "-//W3C//DTD SVG 1.1//EN" "http://www.w3.org/Graphics/SVG/1.1/DTD/svg11.dtd">
<svg xmlns="http://www.w3.org/2000/svg" xmlns:xlink="http://www.w3.org/1999/xlink" version="1.1" id="Capa_1" x="0px" y="0px" viewBox="0 0 296.514 296.514" style="enable-background:new 0 0 296.514 296.514;" xml:space="preserve" width="512px" height="512px">
<g>
	<path d="M209.521,9.729c-23.354,0-45.25,9.378-61.264,25.25c-16.013-15.873-37.909-25.25-61.264-25.25   C39.025,9.729,0,48.754,0,96.722c0,38.813,14.157,73.226,44.553,108.299c24.374,28.123,89.749,72.353,92.521,74.222l11.184,7.543   l11.184-7.543c2.771-1.869,68.146-46.099,92.52-74.222c30.396-35.072,44.554-69.484,44.554-108.299   C296.514,48.754,257.488,9.729,209.521,9.729z M146.636,221.162c-40.825,0-73.92-33.095-73.92-73.92   c0-40.825,33.095-73.921,73.92-73.921s73.92,33.095,73.92,73.921C220.556,188.066,187.461,221.162,146.636,221.162z" fill="#D80027"/>
	<polygon points="191.174,127.241 166.636,127.241 166.636,102.703 126.636,102.703 126.636,127.241 102.098,127.241    102.098,167.241 126.636,167.241 126.636,191.779 166.636,191.779 166.636,167.241 191.174,167.241  " fill="#D80027"/>
</g>
<g>
</g>
<g>
</g>
<g>
</g>
<g>
</g>
<g>
</g>
<g>
</g>
<g>
</g>
<g>
</g>
<g>
</g>
<g>
</g>
<g>
</g>
<g>
</g>
<g>
</g>
<g>
</g>
<g>
</g>
</svg>
