<?xml version="1.0" encoding="utf-8"?>
<!-- Generator: Adobe Illustrator 16.0.0, SVG Export Plug-In . SVG Version: 6.00 Build 0)  -->
<!DOCTYPE svg PUBLIC "-//W3C//DTD SVG 1.1//EN" "http://www.w3.org/Graphics/SVG/1.1/DTD/svg11.dtd">
<svg version="1.1" id="Layer_3" xmlns="http://www.w3.org/2000/svg" xmlns:xlink="http://www.w3.org/1999/xlink" x="0px" y="0px"
	 width="50px" height="50px" viewBox="0 0 50 50" enable-background="new 0 0 50 50" xml:space="preserve">
<g>
	
		<radialGradient id="SVGID_1_" cx="154.2002" cy="2049.6475" r="15.8354" gradientTransform="matrix(1 0 0 0.3542 -129.2002 -681.5946)" gradientUnits="userSpaceOnUse">
		<stop  offset="0" style="stop-color:#000000;stop-opacity:0.3"/>
		<stop  offset="1" style="stop-color:#000000;stop-opacity:0"/>
	</radialGradient>
	<ellipse fill="url(#SVGID_1_)" cx="25" cy="44.391" rx="15.834" ry="5.609"/>
	<path fill="#F4511E" d="M25,0C14.379,0,5.769,8.61,5.769,19.231c0,10.621,4.928,13.623,19.231,25.16
		c14.303-11.539,19.23-14.539,19.23-25.16C44.23,8.61,35.621,0,25,0z"/>
</g>
<g id="Layer_1_1_">
	<g>
		<g>
			<g>
				<circle fill="#FFFFFF" cx="17.4" cy="13.024" r="1.165"/>
				<circle fill="#FFFFFF" cx="34.832" cy="13.024" r="1.165"/>
				<path fill="#FFFFFF" d="M35.099,19.99l0.354-4.309c0.037-0.469-0.312-0.88-0.78-0.919l-1.515-0.125
					c-0.469-0.039-0.882,0.311-0.92,0.78l-0.014,0.147l1.11-0.257l-1.509,0.829c-0.124,0.067-0.217,0.179-0.263,0.313l-0.813,2.382
					c-0.053,0.154-0.034,0.315,0.036,0.448c-0.218,0-8.264,0-11.161,0c0.062-0.224-0.017-0.472-0.218-0.613L17.53,17.34
					l-0.322-1.465l0.554,1.035l0.146,0.103l0.11-1.332c0.039-0.469-0.31-0.881-0.779-0.919l-1.516-0.125
					c-0.468-0.039-0.88,0.311-0.917,0.779l-0.27,4.366l0.357,2.328l-0.871,3.175c-0.099,0.361,0.114,0.735,0.476,0.835
					c0.362,0.099,0.736-0.114,0.834-0.477l0.909-3.314c0.026-0.092,0.031-0.188,0.017-0.283l-0.33-2.15l0.264,0.021l0.812,2.208
					l-0.677,3.196c-0.078,0.368,0.156,0.727,0.524,0.806c0.366,0.078,0.727-0.158,0.805-0.524l0.717-3.387
					c0.027-0.125,0.018-0.255-0.026-0.375l-0.681-1.854l0.044-0.544c-0.55-0.388-1.222-0.862-1.463-1.034
					c-0.17-0.12-0.256-0.316-0.246-0.51l0.104-1.784l0.369,1.68c0.03,0.141,0.111,0.262,0.226,0.343l2.057,1.452
					c0.086,0.061,0.182,0.093,0.279,0.103c-0.004,0.026-0.008,0.054-0.008,0.081c0,0.276,0.225,0.494,0.495,0.494h11.311
					c0.274,0,0.495-0.223,0.495-0.494c0-0.069-0.014-0.133-0.04-0.193c0.235,0,0.456-0.148,0.535-0.384l0.742-2.174l1.316-0.722
					l-0.837,0.824l-0.764,2.229c-0.058,0.176-0.163,0.332-0.308,0.456l0.353,2.301l-0.869,3.174
					c-0.099,0.362,0.115,0.736,0.474,0.835c0.363,0.099,0.736-0.114,0.836-0.477l0.909-3.314c0.023-0.092,0.03-0.189,0.016-0.283
					l-0.33-2.149l0.267,0.021l0.809,2.209l-0.677,3.196c-0.077,0.368,0.156,0.727,0.524,0.806c0.367,0.078,0.727-0.158,0.804-0.524
					l0.717-3.387c0.027-0.125,0.02-0.255-0.025-0.375L35.099,19.99z"/>
				<path fill="#FFFFFF" d="M22.834,18.682l0.848,0.005l-0.93-0.96l1.612,1.036c0.131,0.083,0.297,0.092,0.431,0.034l0.601-0.263
					l1.069-0.469c0.23-0.101,0.335-0.371,0.235-0.602c-0.103-0.232-0.374-0.334-0.602-0.235l-1.446,0.634l-1.46-0.937l1.437,0.469
					l1.292-0.566c0.454-0.199,0.979,0.007,1.179,0.459c0.198,0.45-0.007,0.979-0.459,1.178c-0.304,0.133-0.233,0.102-0.541,0.237
					c0.447,0.002,0.49,0.01,0.615-0.018c0.249,0.007,0.473-0.145,0.559-0.375l0.71-1.892c0.43,0.542,1.478,1.861,1.619,2.038
					c0.197,0.251,0.562,0.291,0.811,0.093c0.251-0.2,0.291-0.564,0.093-0.812l-2.253-2.839c-0.129-0.164-0.337-0.244-0.543-0.211
					c-0.204,0.032-0.378,0.172-0.45,0.368c-0.229,0.608-0.328,0.873-0.557,1.483l-3.834-0.142c-0.32-0.013-0.586,0.242-0.588,0.562
					l-0.009,1.153C22.27,18.425,22.522,18.68,22.834,18.682z"/>
				<path fill="#FFFFFF" d="M20.7,18.646c0.593,0.003,1.072-0.475,1.076-1.064s-0.47-1.074-1.064-1.077
					c-0.591-0.003-1.072,0.473-1.076,1.064C19.631,18.16,20.107,18.642,20.7,18.646z"/>
			</g>
		</g>
	</g>
</g>
<g id="Layer_2">
</g>
</svg>
