<?xml version="1.0" encoding="utf-8"?>
<!-- Generator: Adobe Illustrator 16.0.0, SVG Export Plug-In . SVG Version: 6.00 Build 0)  -->
<!DOCTYPE svg PUBLIC "-//W3C//DTD SVG 1.1//EN" "http://www.w3.org/Graphics/SVG/1.1/DTD/svg11.dtd">
<svg version="1.1" id="Layer_3" xmlns="http://www.w3.org/2000/svg" xmlns:xlink="http://www.w3.org/1999/xlink" x="0px" y="0px"
	 width="200px" height="162.667px" viewBox="0 0 200 162.667" enable-background="new 0 0 200 162.667" xml:space="preserve">
<g>
	<path fill-rule="evenodd" clip-rule="evenodd" fill="#83C1E8" d="M52.47,110.282v1.567H31.89v-4.764v-4.766v-4.807h20.58v1.618
		c-0.184-0.033-0.368,0-0.556,0.091c-0.151,0.066-0.29,0.173-0.412,0.328c-0.155,0.121-0.267,0.261-0.328,0.416
		c-0.089,0.18-0.122,0.367-0.089,0.549v8.326c-0.033,0.189,0,0.367,0.089,0.558c0.061,0.154,0.172,0.31,0.328,0.467
		c0.123,0.121,0.261,0.228,0.412,0.316C52.103,110.249,52.287,110.282,52.47,110.282z"/>
	<g>
		<path fill-rule="evenodd" clip-rule="evenodd" fill="#124266" d="M147.529,110.282l-42.283-0.328
			c-0.856,0.089-1.724,0.173-2.591,0.229c-0.89,0.066-1.772,0.1-2.631,0.1H52.47c-0.184,0-0.368-0.033-0.556-0.1
			c-0.151-0.089-0.29-0.195-0.412-0.316c-0.155-0.157-0.267-0.313-0.328-0.467c-0.089-0.19-0.122-0.368-0.089-0.558v-8.326
			c-0.033-0.182,0-0.369,0.089-0.549c0.061-0.155,0.172-0.295,0.328-0.416c0.123-0.155,0.261-0.262,0.412-0.328
			c0.188-0.091,0.373-0.124,0.556-0.091h18.873c-0.722-0.659-1.4-1.331-2.036-1.994c-0.677-0.702-1.324-1.412-1.94-2.125
			c-0.617-0.769-1.201-1.545-1.757-2.313c-0.589-0.768-1.14-1.567-1.668-2.401c-0.522-0.835-1.001-1.669-1.435-2.504
			c-0.461-0.854-0.89-1.739-1.295-2.63c-0.402-0.9-0.768-1.791-1.107-2.688c-0.373-0.955-0.68-1.894-0.929-2.822
			c-0.306-0.957-0.551-1.911-0.74-2.864c-0.244-0.989-0.428-1.991-0.55-3.008c-0.155-0.989-0.267-1.991-0.328-3.008
			c-0.089-1.047-0.123-2.08-0.089-3.098c0-3.915,0.49-7.679,1.479-11.289c1.017-3.637,2.452-7.028,4.3-10.176
			c1.884-3.176,4.119-6.044,6.71-8.603c2.558-2.591,5.427-4.827,8.602-6.706c3.147-1.852,6.539-3.286,10.176-4.303
			c3.609-0.985,7.368-1.48,11.289-1.48c4.192,0,8.214,0.567,12.072,1.713c3.826,1.139,7.382,2.775,10.683,4.898l0.327,0.14
			l0.317,0.233l0.101,0.094c0.434,0.368,0.767,0.818,1.012,1.341c0.123,0.244,0.237,0.505,0.328,0.784
			c0.056,0.278,0.105,0.572,0.139,0.877c0.033,0.434,0.017,0.88-0.05,1.345c-0.056,0.429-0.173,0.863-0.316,1.292
			c-0.189,0.434-0.406,0.851-0.656,1.251c-0.278,0.433-0.579,0.833-0.923,1.2c-0.368,0.339-0.751,0.634-1.151,0.879
			c-0.435,0.216-0.868,0.4-1.302,0.556c-0.434,0.122-0.873,0.184-1.34,0.184c-0.4,0-0.784-0.044-1.151-0.136
			c-0.378-0.126-0.729-0.293-1.072-0.509h-0.039c-0.623-0.401-1.235-0.773-1.857-1.112c-0.646-0.367-1.307-0.706-1.985-1.018
			c-0.679-0.306-1.357-0.583-2.035-0.828c-0.679-0.278-1.374-0.529-2.086-0.74c-0.733-0.216-1.462-0.405-2.174-0.555
			c-0.733-0.157-1.479-0.295-2.214-0.418c-0.777-0.122-1.545-0.2-2.313-0.233c-0.777-0.061-1.545-0.089-2.313-0.089
			c-2.903,0-5.678,0.368-8.33,1.107c-2.68,0.74-5.177,1.808-7.49,3.192c-2.347,1.357-4.47,2.991-6.384,4.904
			c-1.913,1.912-3.547,4.037-4.904,6.383c-1.388,2.313-2.453,4.811-3.192,7.496c-0.74,2.647-1.112,5.427-1.112,8.325
			c0,1.079,0.05,2.157,0.139,3.235c0.127,1.052,0.294,2.081,0.511,3.1c0.184,1.018,0.445,2.023,0.785,3.007
			c0.278,0.99,0.617,1.946,1.018,2.869c0.4,0.923,0.85,1.852,1.345,2.775c0.49,0.866,1.018,1.725,1.569,2.59
			c1.145,1.669,2.424,3.203,3.842,4.626c1.418,1.415,2.975,2.699,4.67,3.843c0.834,0.55,1.697,1.08,2.592,1.569
			c0.896,0.49,1.801,0.939,2.729,1.34c0.923,0.4,1.879,0.762,2.864,1.063c0.99,0.313,2.008,0.573,3.053,0.785
			c0.989,0.187,2.024,0.344,3.103,0.466c1.046,0.089,2.113,0.154,3.192,0.188v-0.048c2.894-0.033,5.688-0.419,8.369-1.151
			c2.658-0.746,5.149-1.791,7.496-3.148c2.313-1.39,4.421-3.023,6.333-4.905c1.913-1.912,3.564-4.035,4.955-6.382
			c1.355-2.346,2.402-4.844,3.146-7.497c0.734-2.679,1.118-5.471,1.151-8.368c-0.033-0.494-0.05-0.989-0.05-1.484
			c-0.022-0.49-0.072-0.985-0.136-1.479l-0.37-2.87c-0.09-0.461-0.106-0.89-0.039-1.293c0.022-0.43,0.138-0.83,0.317-1.203
			c0.188-0.401,0.417-0.769,0.694-1.107c0.278-0.339,0.606-0.651,0.973-0.929c0.368-0.278,0.769-0.506,1.201-0.695
			c0.212-0.123,0.45-0.212,0.695-0.275c0.245-0.064,0.49-0.126,0.736-0.187c0.407-0.089,0.815-0.123,1.249-0.089
			c0.345,0,0.662,0.012,0.974,0.045c0.277,0.028,0.572,0.094,0.884,0.183c0.277,0.095,0.539,0.2,0.783,0.323
			c0.279,0.128,0.523,0.278,0.735,0.467c0.433,0.306,0.803,0.678,1.111,1.107c0.312,0.434,0.523,0.928,0.646,1.479v0.189
			c0.467,2.524,0.712,5.132,0.745,7.818c0,1.045-0.033,2.08-0.089,3.097c-0.1,1.018-0.206,2.035-0.328,3.054
			c-0.155,0.984-0.334,1.974-0.557,2.958c-0.211,0.957-0.456,1.913-0.733,2.869c-0.278,0.956-0.59,1.897-0.935,2.821
			c-0.367,0.927-0.733,1.833-1.102,2.733c-0.434,0.857-0.867,1.725-1.3,2.592c-0.457,0.857-0.957,1.707-1.48,2.542
			c-0.522,0.801-1.062,1.585-1.618,2.351c-0.588,0.779-1.184,1.548-1.807,2.313c-0.611,0.713-1.251,1.425-1.896,2.136
			c-0.678,0.703-1.373,1.381-2.074,2.034h18.823h0.049c0.368,0,0.686,0.14,0.964,0.419c0.277,0.243,0.417,0.563,0.417,0.965v8.326
			c0,0.189-0.023,0.367-0.09,0.558c-0.089,0.154-0.204,0.31-0.327,0.467c-0.123,0.121-0.262,0.228-0.418,0.316
			c-0.178,0.066-0.366,0.1-0.546,0.1H147.529z M134.206,65.129l0.089,2.502c0,2.341-0.229,4.637-0.695,6.89
			c-0.244,1.08-0.522,2.158-0.822,3.236c-0.346,1.08-0.729,2.13-1.162,3.147c-0.868,2.034-1.913,3.982-3.147,5.828
			c-1.234,1.791-2.608,3.466-4.11,5.043c-1.578,1.544-3.253,2.925-5.043,4.159c-1.823,1.235-3.754,2.298-5.788,3.196
			c-0.701,0.302-1.413,0.596-2.125,0.875c-0.712,0.243-1.429,0.482-2.174,0.695c-0.743,0.188-1.479,0.356-2.225,0.505
			c-0.767,0.156-1.518,0.296-2.263,0.418c-0.768,0.1-1.552,0.173-2.363,0.238c-0.801,0.056-1.584,0.089-2.353,0.089h-46.12v5.499
			h46.12c0.923-0.022,1.847-0.071,2.77-0.138c0.9-0.056,1.791-0.147,2.691-0.278c0.856-0.122,1.74-0.262,2.63-0.412
			c0.867-0.184,1.727-0.405,2.591-0.65c0.835-0.244,1.669-0.505,2.503-0.784c0.801-0.312,1.602-0.629,2.402-0.974
			c0.801-0.332,1.584-0.695,2.363-1.061c0.767-0.4,1.518-0.818,2.264-1.253c0.711-0.432,1.406-0.872,2.085-1.339
			c0.679-0.456,1.339-0.938,1.984-1.431h0.05l-0.05-0.048c0.769-0.611,1.546-1.251,2.313-1.897c0.712-0.678,1.412-1.372,2.124-2.085
			c0.679-0.7,1.324-1.445,1.946-2.214c0.611-0.777,1.218-1.561,1.808-2.362c0.554-0.801,1.095-1.636,1.618-2.498
			c0.522-0.86,1.012-1.728,1.479-2.584c0.435-0.901,0.852-1.809,1.251-2.735c0.367-0.958,0.701-1.909,1.013-2.865
			c0.312-0.957,0.589-1.928,0.834-2.914c0.211-1.018,0.417-2.022,0.604-3.008c0.147-1.05,0.271-2.081,0.37-3.099
			c0.056-1.082,0.105-2.144,0.139-3.189l-0.189-3.33c-0.333,0.21-0.695,0.411-1.062,0.6c-0.434,0.151-0.867,0.278-1.292,0.367
			c-0.433,0.062-0.849,0.111-1.249,0.139c-0.346-0.028-0.662-0.061-0.974-0.089C134.729,65.286,134.451,65.225,134.206,65.129z
			 M146.14,101.952h-20.884c-0.773,0.571-1.561,1.111-2.338,1.618c-0.801,0.522-1.635,1.018-2.492,1.479
			c-0.833,0.467-1.7,0.896-2.591,1.301c-0.86,0.383-1.72,0.751-2.565,1.101h30.87V101.952z M61.723,57.128
			c-0.956,3.363-1.436,6.877-1.436,10.548c0,3.208,0.373,6.306,1.112,9.297c0.707,2.958,1.741,5.796,3.098,8.508
			c1.329,2.658,2.947,5.133,4.859,7.446c1.908,2.291,4.038,4.348,6.38,6.204h10.711c-2.024-0.889-3.912-1.934-5.669-3.146
			c-1.818-1.235-3.498-2.625-5.042-4.159c-1.542-1.58-2.927-3.27-4.161-5.094c-1.234-1.823-2.285-3.746-3.147-5.783
			c-0.43-1.019-0.801-2.064-1.108-3.143c-0.34-1.082-0.632-2.164-0.882-3.242c-0.462-2.252-0.679-4.548-0.646-6.89
			c0-3.147,0.401-6.167,1.201-9.069c0.802-2.925,1.958-5.656,3.47-8.185c1.479-2.559,3.27-4.872,5.367-6.939
			c2.067-2.097,4.381-3.883,6.939-5.367c2.529-1.507,5.255-2.664,8.185-3.47c2.902-0.802,5.923-1.201,9.069-1.201
			c2.714,0,5.344,0.311,7.912,0.928c2.525,0.584,4.928,1.446,7.208,2.586c0.033-0.306,0.1-0.616,0.188-0.923
			c0.067-0.339,0.172-0.678,0.328-1.017c0.122-0.34,0.288-0.662,0.506-0.974c0.245-0.367,0.522-0.706,0.835-1.018
			c0.277-0.306,0.578-0.568,0.923-0.784c-0.89-0.461-1.808-0.895-2.73-1.296c-0.923-0.373-1.863-0.711-2.819-1.017
			c-0.957-0.34-1.946-0.634-2.958-0.879c-1.023-0.245-2.036-0.446-3.059-0.6c-1.046-0.186-2.091-0.312-3.147-0.373
			c-1.046-0.089-2.107-0.14-3.187-0.14c-3.669,0-7.185,0.478-10.548,1.436c-3.359,0.927-6.523,2.251-9.481,3.98
			c-2.964,1.725-5.645,3.804-8.052,6.245c-2.436,2.403-4.516,5.088-6.245,8.047C63.976,50.605,62.646,53.769,61.723,57.128z
			 M121.906,34.646c-0.101-0.122-0.173-0.212-0.239-0.273l-0.228-0.138l-0.278-0.095l-0.278-0.044c-0.212,0-0.434,0.028-0.645,0.089
			c-0.217,0.061-0.418,0.172-0.606,0.326c-0.212,0.124-0.417,0.275-0.596,0.463c-0.188,0.185-0.344,0.401-0.467,0.646
			c-0.212,0.31-0.367,0.617-0.456,0.927c-0.127,0.339-0.172,0.663-0.139,0.968c0,0.312,0.039,0.59,0.139,0.834
			c0.122,0.217,0.284,0.4,0.507,0.556c0.181,0.123,0.399,0.185,0.645,0.185c0.214-0.032,0.434-0.079,0.645-0.139
			c0.189-0.061,0.385-0.156,0.606-0.279c0.212-0.155,0.417-0.306,0.595-0.462c0.189-0.216,0.361-0.434,0.518-0.645
			c0.122-0.216,0.229-0.45,0.317-0.694c0.099-0.251,0.155-0.479,0.188-0.695c0.033-0.246,0.05-0.479,0.05-0.695l-0.05-0.279
			l-0.09-0.277C122.011,34.835,121.962,34.74,121.906,34.646z M134.017,60.091c-0.149,0.15-0.261,0.339-0.316,0.55
			c-0.066,0.19-0.066,0.373,0,0.557c0.032,0.25,0.139,0.461,0.316,0.65c0.189,0.183,0.418,0.339,0.695,0.461
			c0.278,0.094,0.59,0.167,0.923,0.231h0.379c0.211,0,0.439-0.015,0.694-0.048c0.245-0.061,0.489-0.139,0.734-0.228
			c0.245-0.127,0.467-0.249,0.646-0.372c0.222-0.123,0.4-0.278,0.556-0.461l0.14-0.184c0.065-0.094,0.121-0.2,0.188-0.327
			c0.033-0.123,0.056-0.246,0.089-0.368s0.033-0.25,0-0.373c-0.033-0.216-0.105-0.399-0.229-0.556
			c-0.155-0.149-0.327-0.289-0.506-0.411c-0.222-0.128-0.45-0.218-0.694-0.279c-0.278-0.061-0.573-0.094-0.885-0.094
			c-0.244-0.032-0.473-0.018-0.694,0.044c-0.301,0.061-0.579,0.156-0.828,0.278c-0.273,0.122-0.513,0.261-0.691,0.417
			C134.312,59.736,134.141,59.903,134.017,60.091z"/>
		<path fill-rule="evenodd" clip-rule="evenodd" fill="#DDF0FF" d="M146.14,101.952v5.499h-30.87
			c0.846-0.35,1.705-0.718,2.565-1.101c0.891-0.405,1.758-0.834,2.591-1.301c0.857-0.462,1.691-0.957,2.492-1.479
			c0.777-0.507,1.564-1.047,2.338-1.618H146.14z M147.529,110.282h0.049c0.18,0,0.368-0.033,0.546-0.1
			c0.156-0.089,0.295-0.195,0.418-0.316c0.123-0.157,0.238-0.313,0.327-0.467c0.066-0.19,0.09-0.368,0.09-0.558v-8.326
			c0-0.402-0.14-0.722-0.417-0.965c-0.278-0.279-0.596-0.419-0.964-0.419h-0.049v-1.618h20.581v4.807v4.766v4.764h-20.581V110.282z
			 M154.697,107.085h13.413H154.697z M154.697,102.32h13.413H154.697z M61.723,57.128c0.923-3.359,2.252-6.523,3.976-9.481
			c1.729-2.959,3.809-5.645,6.245-8.047c2.407-2.44,5.088-4.52,8.052-6.245c2.958-1.729,6.122-3.053,9.481-3.98
			c3.363-0.958,6.878-1.436,10.548-1.436c1.079,0,2.141,0.051,3.187,0.14c1.057,0.061,2.102,0.187,3.147,0.373
			c1.022,0.154,2.035,0.355,3.059,0.6c1.012,0.245,2.001,0.539,2.958,0.879c0.956,0.306,1.896,0.644,2.819,1.017
			c0.923,0.401,1.841,0.834,2.73,1.296c-0.345,0.216-0.646,0.478-0.923,0.784c-0.313,0.312-0.59,0.651-0.835,1.018
			c-0.218,0.312-0.384,0.634-0.506,0.974c-0.156,0.339-0.261,0.678-0.328,1.017c-0.089,0.307-0.155,0.618-0.188,0.923
			c-2.28-1.14-4.683-2.001-7.208-2.586c-2.568-0.617-5.198-0.928-7.912-0.928c-3.146,0-6.167,0.399-9.069,1.201
			c-2.93,0.806-5.656,1.963-8.185,3.47c-2.559,1.484-4.872,3.27-6.939,5.367c-2.097,2.067-3.887,4.381-5.367,6.939
			c-1.512,2.529-2.668,5.26-3.47,8.185c-0.8,2.902-1.201,5.922-1.201,9.069c-0.033,2.342,0.184,4.638,0.646,6.89
			c0.25,1.078,0.542,2.16,0.882,3.242c0.307,1.078,0.679,2.124,1.108,3.143c0.862,2.037,1.913,3.959,3.147,5.783
			c1.234,1.824,2.619,3.514,4.161,5.094c1.545,1.534,3.224,2.924,5.042,4.159c1.757,1.212,3.645,2.257,5.669,3.146H75.737
			c-2.342-1.856-4.472-3.913-6.38-6.204c-1.912-2.313-3.53-4.788-4.859-7.446c-1.357-2.712-2.392-5.55-3.098-8.508
			c-0.739-2.991-1.112-6.089-1.112-9.297C60.288,64.006,60.767,60.492,61.723,57.128z M45.302,102.32H31.89H45.302z M45.302,107.085
			H31.89H45.302z"/>
	</g>
	<path fill-rule="evenodd" clip-rule="evenodd" fill="none" stroke="#83C1E8" stroke-width="2" stroke-miterlimit="10" d="
		M133.005,50.699c1.646,3.126,2.779,6.458,3.426,9.993 M119.909,36.383c2.195,1.439,4.28,3.143,6.245,5.113
		c0.788,0.778,1.523,1.579,2.225,2.402"/>
	<path fill-rule="evenodd" clip-rule="evenodd" fill="#83C1E8" d="M134.206,65.129c0.245,0.095,0.522,0.156,0.834,0.189
		c0.312,0.028,0.628,0.061,0.974,0.089c0.4-0.028,0.816-0.078,1.249-0.139c0.425-0.089,0.858-0.216,1.292-0.367
		c0.366-0.189,0.729-0.39,1.062-0.6l0.189,3.33c-0.033,1.045-0.083,2.108-0.139,3.189c-0.099,1.019-0.223,2.049-0.37,3.099
		c-0.187,0.986-0.393,1.991-0.604,3.008c-0.245,0.986-0.522,1.958-0.834,2.914c-0.312,0.956-0.646,1.907-1.013,2.865
		c-0.399,0.927-0.816,1.834-1.251,2.735c-0.467,0.856-0.956,1.724-1.479,2.584c-0.523,0.862-1.064,1.697-1.618,2.498
		c-0.59,0.802-1.196,1.585-1.808,2.362c-0.622,0.769-1.268,1.514-1.946,2.214c-0.712,0.713-1.412,1.407-2.124,2.085
		c-0.768,0.646-1.545,1.286-2.313,1.897l0.05,0.048h-0.05c-0.646,0.492-1.306,0.975-1.984,1.431
		c-0.679,0.467-1.374,0.907-2.085,1.339c-0.746,0.435-1.497,0.853-2.264,1.253c-0.779,0.365-1.563,0.729-2.363,1.061
		c-0.801,0.345-1.602,0.662-2.402,0.974c-0.834,0.279-1.668,0.54-2.503,0.784c-0.864,0.245-1.724,0.467-2.591,0.65
		c-0.89,0.15-1.773,0.29-2.63,0.412c-0.9,0.131-1.791,0.223-2.691,0.278c-0.923,0.066-1.847,0.115-2.77,0.138h-46.12v-5.499h46.12
		c0.769,0,1.552-0.033,2.353-0.089c0.812-0.065,1.596-0.139,2.363-0.238c0.745-0.122,1.496-0.262,2.263-0.418
		c0.746-0.148,1.481-0.317,2.225-0.505c0.745-0.213,1.462-0.452,2.174-0.695c0.712-0.279,1.424-0.573,2.125-0.875
		c2.034-0.898,3.965-1.961,5.788-3.196c1.79-1.234,3.465-2.615,5.043-4.159c1.502-1.577,2.876-3.252,4.11-5.043
		c1.234-1.846,2.279-3.794,3.147-5.828c0.434-1.017,0.816-2.067,1.162-3.147c0.3-1.078,0.578-2.156,0.822-3.236
		c0.467-2.252,0.695-4.548,0.695-6.89L134.206,65.129z"/>
	<path fill="#83C1E8" d="M168.11,108.475h-13.413c-0.762,0-1.39-0.628-1.39-1.39c0-0.763,0.628-1.391,1.39-1.391h13.413
		c0.772,0,1.39,0.628,1.39,1.391C169.5,107.847,168.883,108.475,168.11,108.475z M168.11,103.709h-13.413
		c-0.762,0-1.39-0.617-1.39-1.39c0-0.763,0.628-1.391,1.39-1.391h13.413c0.772,0,1.39,0.628,1.39,1.391
		C169.5,103.092,168.883,103.709,168.11,103.709z"/>
	<path fill="#DDF0FF" d="M45.302,103.709H31.89c-0.768,0-1.39-0.617-1.39-1.39c0-0.763,0.622-1.391,1.39-1.391h13.412
		c0.769,0,1.385,0.628,1.385,1.391C46.688,103.092,46.071,103.709,45.302,103.709z"/>
	<path fill="#DDF0FF" d="M45.302,108.475H31.89c-0.768,0-1.39-0.628-1.39-1.39c0-0.763,0.622-1.391,1.39-1.391h13.412
		c0.769,0,1.385,0.628,1.385,1.391C46.688,107.847,46.071,108.475,45.302,108.475z"/>
	
		<path fill-rule="evenodd" clip-rule="evenodd" fill="none" stroke="#124266" stroke-width="3" stroke-linecap="round" stroke-linejoin="round" stroke-miterlimit="3" d="
		M168.11,111.849V97.513h-13.413v14.336H168.11z M154.697,111.849h-7.168V97.513h7.168 M45.302,97.513H31.89v14.336h13.412V97.513
		h7.168v14.336h-7.168"/>
	<polyline opacity="0.75" fill="#124266" points="131.151,44.455 134.844,31.253 131.764,31.253 137.157,17.319 135.467,27.939 
		139.014,27.939 	"/>
	<polyline opacity="0.75" fill="#124266" points="135.082,47.879 141.783,40.754 139.806,39.367 148.412,33.2 144.252,39.367 
		147.644,41.385 	"/>
</g>
<path fill="#D1D4D9" d="M100,127.933c9.366,0,17.35,0.167,23.95,0.5c6.633,0.334,9.95,0.732,9.95,1.199
	c0,0.468-3.317,0.867-9.95,1.201c-6.601,0.332-14.584,0.5-23.95,0.5c-9.367,0-17.367-0.168-24-0.5c-6.6-0.334-9.9-0.733-9.9-1.201
	c0-0.467,3.301-0.865,9.9-1.199C82.633,128.1,90.633,127.933,100,127.933z"/>
<g>
	<path fill="#79818C" d="M51.757,152.506h-1.172l-3.018-6.293l-0.018,0.006v6.287h-1.178v-8.531h1.178l3.018,6.281l0.018-0.006
		v-6.275h1.172V152.506z"/>
	<path fill="#79818C" d="M53.022,148.938c0-0.859,0.205-1.556,0.615-2.089s0.986-0.8,1.729-0.8c0.746,0,1.324,0.267,1.734,0.8
		s0.615,1.229,0.615,2.089v0.809c0,0.867-0.204,1.563-0.612,2.089s-0.983,0.788-1.726,0.788c-0.75,0-1.33-0.264-1.74-0.791
		s-0.615-1.223-0.615-2.086V148.938z M54.2,149.747c0,0.594,0.094,1.072,0.281,1.436s0.486,0.545,0.896,0.545
		c0.398,0,0.692-0.183,0.882-0.548s0.284-0.843,0.284-1.433v-0.809c0-0.586-0.096-1.062-0.287-1.427s-0.488-0.548-0.891-0.548
		c-0.406,0-0.702,0.183-0.888,0.548s-0.278,0.841-0.278,1.427V149.747z"/>
	<path fill="#79818C" d="M63.476,151.727c0.281,0,0.521-0.113,0.721-0.34s0.291-0.537,0.275-0.932h1.102
		c0.016,0.625-0.184,1.143-0.598,1.553s-0.908,0.615-1.482,0.615c-0.77,0-1.35-0.263-1.74-0.788s-0.586-1.21-0.586-2.054v-0.873
		c0-0.844,0.196-1.531,0.589-2.063s0.97-0.797,1.731-0.797c0.637,0,1.146,0.212,1.529,0.636s0.568,0.997,0.557,1.72h-1.102
		c0.012-0.438-0.073-0.787-0.255-1.049s-0.429-0.393-0.741-0.393c-0.43,0-0.726,0.179-0.888,0.536s-0.243,0.827-0.243,1.409v0.873
		c0,0.594,0.08,1.066,0.24,1.418S63.042,151.727,63.476,151.727z"/>
	<path fill="#79818C" d="M66.388,148.938c0-0.859,0.205-1.556,0.615-2.089s0.986-0.8,1.729-0.8c0.746,0,1.324,0.267,1.734,0.8
		s0.615,1.229,0.615,2.089v0.809c0,0.867-0.204,1.563-0.612,2.089s-0.983,0.788-1.726,0.788c-0.75,0-1.33-0.264-1.74-0.791
		s-0.615-1.223-0.615-2.086V148.938z M67.565,149.747c0,0.594,0.094,1.072,0.281,1.436s0.486,0.545,0.896,0.545
		c0.398,0,0.692-0.183,0.882-0.548s0.284-0.843,0.284-1.433v-0.809c0-0.586-0.096-1.062-0.287-1.427s-0.488-0.548-0.891-0.548
		c-0.406,0-0.702,0.183-0.888,0.548s-0.278,0.841-0.278,1.427V149.747z"/>
	<path fill="#79818C" d="M73.272,146.167l0.064,0.855h0.018c0.16-0.309,0.364-0.548,0.612-0.718s0.532-0.255,0.853-0.255
		c0.539,0,0.954,0.198,1.245,0.595s0.437,1.03,0.437,1.901v3.961h-1.178v-3.949c0-0.59-0.075-1.001-0.226-1.233
		s-0.39-0.349-0.718-0.349c-0.223,0-0.418,0.07-0.586,0.211s-0.309,0.336-0.422,0.586v4.734h-1.178v-6.34H73.272z"/>
	<path fill="#79818C" d="M78.88,146.167l0.064,0.855h0.018c0.16-0.309,0.364-0.548,0.612-0.718s0.532-0.255,0.853-0.255
		c0.539,0,0.954,0.198,1.245,0.595s0.437,1.03,0.437,1.901v3.961h-1.178v-3.949c0-0.59-0.075-1.001-0.226-1.233
		s-0.39-0.349-0.718-0.349c-0.223,0-0.418,0.07-0.586,0.211s-0.309,0.336-0.422,0.586v4.734h-1.178v-6.34H78.88z"/>
	<path fill="#79818C" d="M85.554,152.624c-0.715,0-1.281-0.257-1.699-0.771s-0.627-1.187-0.627-2.019v-0.926
		c0-0.844,0.207-1.531,0.621-2.063s0.953-0.797,1.617-0.797c0.703,0,1.236,0.241,1.6,0.724s0.545,1.146,0.545,1.989v0.82h-3.205
		v0.252c0,0.563,0.102,1.019,0.305,1.368s0.51,0.524,0.92,0.524c0.375,0,0.675-0.053,0.899-0.158s0.419-0.256,0.583-0.451
		l0.334,0.762c-0.191,0.23-0.446,0.412-0.765,0.545S85.987,152.624,85.554,152.624z M85.466,146.963
		c-0.32,0-0.572,0.164-0.756,0.492s-0.285,0.754-0.305,1.277h2.045v-0.24c0-0.457-0.081-0.826-0.243-1.107
		S85.798,146.963,85.466,146.963z"/>
	<path fill="#79818C" d="M90.757,151.727c0.281,0,0.521-0.113,0.721-0.34s0.291-0.537,0.275-0.932h1.102
		c0.016,0.625-0.184,1.143-0.598,1.553s-0.908,0.615-1.482,0.615c-0.77,0-1.35-0.263-1.74-0.788s-0.586-1.21-0.586-2.054v-0.873
		c0-0.844,0.196-1.531,0.589-2.063s0.97-0.797,1.731-0.797c0.637,0,1.146,0.212,1.529,0.636s0.568,0.997,0.557,1.72h-1.102
		c0.012-0.438-0.073-0.787-0.255-1.049s-0.429-0.393-0.741-0.393c-0.43,0-0.726,0.179-0.888,0.536s-0.243,0.827-0.243,1.409v0.873
		c0,0.594,0.08,1.066,0.24,1.418S90.323,151.727,90.757,151.727z"/>
	<path fill="#79818C" d="M95.28,144.59v1.576h0.914v0.85H95.28v3.773c0,0.336,0.039,0.57,0.117,0.703s0.184,0.199,0.316,0.199
		c0.078,0,0.15-0.006,0.217-0.018s0.133-0.027,0.199-0.047l0.123,0.814c-0.105,0.055-0.231,0.099-0.378,0.132
		s-0.298,0.05-0.454,0.05c-0.426,0-0.752-0.144-0.979-0.431s-0.34-0.755-0.34-1.403v-3.773h-0.697v-0.85h0.697v-1.576H95.28z"/>
	<path fill="#79818C" d="M98.433,144.502h-1.172v-1.137h1.172V144.502z M98.433,152.506h-1.172v-6.34h1.172V152.506z"/>
	<path fill="#79818C" d="M99.628,148.938c0-0.859,0.205-1.556,0.615-2.089s0.986-0.8,1.729-0.8c0.746,0,1.324,0.267,1.734,0.8
		s0.615,1.229,0.615,2.089v0.809c0,0.867-0.204,1.563-0.612,2.089s-0.983,0.788-1.726,0.788c-0.75,0-1.33-0.264-1.74-0.791
		s-0.615-1.223-0.615-2.086V148.938z M100.806,149.747c0,0.594,0.094,1.072,0.281,1.436s0.486,0.545,0.896,0.545
		c0.398,0,0.692-0.183,0.882-0.548s0.284-0.843,0.284-1.433v-0.809c0-0.586-0.096-1.062-0.287-1.427s-0.488-0.548-0.891-0.548
		c-0.406,0-0.702,0.183-0.888,0.548s-0.278,0.841-0.278,1.427V149.747z"/>
	<path fill="#79818C" d="M106.513,146.167l0.064,0.855h0.018c0.16-0.309,0.364-0.548,0.612-0.718s0.532-0.255,0.853-0.255
		c0.539,0,0.954,0.198,1.245,0.595s0.437,1.03,0.437,1.901v3.961h-1.178v-3.949c0-0.59-0.075-1.001-0.226-1.233
		s-0.39-0.349-0.718-0.349c-0.223,0-0.418,0.07-0.586,0.211s-0.309,0.336-0.422,0.586v4.734h-1.178v-6.34H106.513z"/>
	<path fill="#79818C" d="M112.161,152.208c0,0.379-0.082,0.763-0.246,1.151s-0.379,0.72-0.645,0.993l-0.609-0.393
		c0.137-0.277,0.239-0.551,0.308-0.82s0.103-0.568,0.103-0.896v-0.99h1.096L112.161,152.208z"/>
	<path fill="#79818C" d="M117.294,144.59v1.576h0.914v0.85h-0.914v3.773c0,0.336,0.039,0.57,0.117,0.703s0.184,0.199,0.316,0.199
		c0.078,0,0.15-0.006,0.217-0.018s0.133-0.027,0.199-0.047l0.123,0.814c-0.105,0.055-0.231,0.099-0.378,0.132
		s-0.298,0.05-0.454,0.05c-0.426,0-0.752-0.144-0.979-0.431s-0.34-0.755-0.34-1.403v-3.773h-0.697v-0.85h0.697v-1.576H117.294z"/>
	<path fill="#79818C" d="M121.812,147.168l-0.545-0.029c-0.223,0-0.406,0.069-0.551,0.208s-0.258,0.339-0.34,0.601v4.559h-1.178
		v-6.34h1.078l0.076,0.885h0.018c0.125-0.316,0.284-0.563,0.478-0.738s0.423-0.264,0.688-0.264c0.074,0,0.149,0.007,0.226,0.021
		s0.14,0.03,0.19,0.05L121.812,147.168z"/>
	<path fill="#79818C" d="M124.606,150.321l0.082,0.381h0.018l1.131-4.535h1.289l-2.109,7.324c-0.133,0.434-0.319,0.805-0.56,1.113
		s-0.595,0.463-1.063,0.463c-0.102,0-0.202-0.01-0.302-0.029s-0.208-0.045-0.325-0.076l0.129-0.879
		c0.043,0.008,0.099,0.016,0.167,0.023s0.122,0.012,0.161,0.012c0.223,0,0.385-0.073,0.486-0.22s0.209-0.405,0.322-0.776
		l0.193-0.645l-1.852-6.311h1.277L124.606,150.321z"/>
	<path fill="#79818C" d="M133.53,152.506c-0.039-0.145-0.072-0.282-0.1-0.413s-0.047-0.259-0.059-0.384l-0.012-0.006
		c-0.164,0.27-0.367,0.49-0.609,0.662s-0.514,0.258-0.814,0.258c-0.523,0-0.927-0.165-1.21-0.495s-0.425-0.784-0.425-1.362
		c0-0.617,0.192-1.096,0.577-1.436s0.938-0.51,1.661-0.51h0.814v-0.65c0-0.395-0.077-0.698-0.231-0.911s-0.378-0.319-0.671-0.319
		c-0.27,0-0.48,0.095-0.633,0.284s-0.229,0.437-0.229,0.741l-1.178-0.006c0-0.52,0.193-0.968,0.58-1.345s0.898-0.565,1.535-0.565
		c0.605,0,1.091,0.181,1.456,0.542s0.548,0.892,0.548,1.591v2.941c0,0.242,0.015,0.476,0.044,0.7s0.075,0.452,0.138,0.683H133.53z
		 M132.206,151.709c0.258,0,0.488-0.077,0.691-0.231s0.355-0.353,0.457-0.595v-1.324h-0.832c-0.34,0-0.6,0.115-0.779,0.346
		s-0.27,0.516-0.27,0.855c0,0.289,0.063,0.52,0.188,0.691S131.968,151.709,132.206,151.709z"/>
	<path fill="#79818C" d="M135.646,149.084c0-0.93,0.173-1.668,0.519-2.215s0.843-0.82,1.491-0.82c0.305,0,0.568,0.071,0.791,0.214
		s0.412,0.347,0.568,0.612l0.018-0.006l0.082-0.703h1.014v6.311c0,0.828-0.201,1.466-0.604,1.913s-0.977,0.671-1.723,0.671
		c-0.27,0-0.548-0.042-0.835-0.126s-0.556-0.202-0.806-0.354l0.246-0.826c0.211,0.125,0.428,0.225,0.65,0.299
		s0.453,0.111,0.691,0.111c0.414,0,0.718-0.144,0.911-0.431s0.29-0.708,0.29-1.263v-0.516l-0.018-0.006
		c-0.156,0.223-0.339,0.391-0.548,0.504s-0.456,0.17-0.741,0.17c-0.641,0-1.134-0.248-1.479-0.744s-0.519-1.168-0.519-2.016V149.084
		z M136.823,149.864c0,0.57,0.088,1.02,0.264,1.348s0.461,0.492,0.855,0.492c0.242,0,0.444-0.063,0.606-0.188
		s0.296-0.309,0.401-0.551v-3.199c-0.105-0.25-0.24-0.444-0.404-0.583s-0.361-0.208-0.592-0.208c-0.395,0-0.682,0.191-0.861,0.574
		s-0.27,0.895-0.27,1.535V149.864z"/>
	<path fill="#79818C" d="M144.511,152.506c-0.039-0.145-0.072-0.282-0.1-0.413s-0.047-0.259-0.059-0.384l-0.012-0.006
		c-0.164,0.27-0.367,0.49-0.609,0.662s-0.514,0.258-0.814,0.258c-0.523,0-0.927-0.165-1.21-0.495s-0.425-0.784-0.425-1.362
		c0-0.617,0.192-1.096,0.577-1.436s0.938-0.51,1.661-0.51h0.814v-0.65c0-0.395-0.077-0.698-0.231-0.911s-0.378-0.319-0.671-0.319
		c-0.27,0-0.48,0.095-0.633,0.284s-0.229,0.437-0.229,0.741l-1.178-0.006c0-0.52,0.193-0.968,0.58-1.345s0.898-0.565,1.535-0.565
		c0.605,0,1.091,0.181,1.456,0.542s0.548,0.892,0.548,1.591v2.941c0,0.242,0.015,0.476,0.044,0.7s0.075,0.452,0.138,0.683H144.511z
		 M143.187,151.709c0.258,0,0.488-0.077,0.691-0.231s0.355-0.353,0.457-0.595v-1.324h-0.832c-0.34,0-0.6,0.115-0.779,0.346
		s-0.27,0.516-0.27,0.855c0,0.289,0.063,0.52,0.188,0.691S142.948,151.709,143.187,151.709z"/>
	<path fill="#79818C" d="M148.079,144.502h-1.172v-1.137h1.172V144.502z M148.079,152.506h-1.172v-6.34h1.172V152.506z"/>
	<path fill="#79818C" d="M150.552,146.167l0.064,0.855h0.018c0.16-0.309,0.364-0.548,0.612-0.718s0.532-0.255,0.853-0.255
		c0.539,0,0.954,0.198,1.245,0.595s0.437,1.03,0.437,1.901v3.961h-1.178v-3.949c0-0.59-0.075-1.001-0.226-1.233
		s-0.39-0.349-0.718-0.349c-0.223,0-0.418,0.07-0.586,0.211s-0.309,0.336-0.422,0.586v4.734h-1.178v-6.34H150.552z"/>
</g>
</svg>
