<?xml version="1.0" encoding="utf-8"?>
<!-- Generator: Adobe Illustrator 16.0.0, SVG Export Plug-In . SVG Version: 6.00 Build 0)  -->
<!DOCTYPE svg PUBLIC "-//W3C//DTD SVG 1.1//EN" "http://www.w3.org/Graphics/SVG/1.1/DTD/svg11.dtd">
<svg version="1.1" id="Layer_1" xmlns="http://www.w3.org/2000/svg" xmlns:xlink="http://www.w3.org/1999/xlink" x="0px" y="0px"
	 width="42px" height="42px" viewBox="-9 0 42 42" enable-background="new -9 0 42 42" xml:space="preserve">
<path fill="#FFFFFF" d="M6.62,19.79c1.44,2.83,3.76,5.14,6.59,6.59l2.2-2.2c0.27-0.27,0.67-0.359,1.02-0.24
	c1.12,0.371,2.33,0.57,3.57,0.57c0.55,0,1,0.45,1,1V29c0,0.55-0.45,1-1,1c-9.39,0-17-7.609-17-17c0-0.55,0.45-1,1-1h3.5
	c0.55,0,1,0.45,1,1c0,1.25,0.2,2.45,0.57,3.57c0.11,0.35,0.03,0.74-0.25,1.02L6.62,19.79z"/>
</svg>
