<?xml version="1.0" encoding="utf-8"?>
<!-- Generator: Adobe Illustrator 16.0.0, SVG Export Plug-In . SVG Version: 6.00 Build 0)  -->
<!DOCTYPE svg PUBLIC "-//W3C//DTD SVG 1.1//EN" "http://www.w3.org/Graphics/SVG/1.1/DTD/svg11.dtd">
<svg version="1.1" id="Layer_1" xmlns="http://www.w3.org/2000/svg" xmlns:xlink="http://www.w3.org/1999/xlink" x="0px" y="0px"
	 width="42px" height="42px" viewBox="-9 -9 42 42" enable-background="new -9 -9 42 42" xml:space="preserve">
<g>
	<defs>
		<rect id="SVGID_1_" x="4" y="4" width="16" height="16"/>
	</defs>
	<clipPath id="SVGID_2_">
		<use xlink:href="#SVGID_1_"  overflow="visible"/>
	</clipPath>
	<path clip-path="url(#SVGID_2_)" fill="#9E9E9E" d="M6,6.667v-2h1.333v2h2V8h-2v2H6V8H4V6.667H6z M8,10.667v-2h2v-2h4.667L15.887,8
		H18c0.733,0,1.333,0.6,1.333,1.333v8c0,0.733-0.6,1.334-1.333,1.334H7.333C6.6,18.667,6,18.066,6,17.333v-6.667H8z M12.667,16.667
		c1.84,0,3.333-1.494,3.333-3.334S14.507,10,12.667,10c-1.84,0-3.333,1.493-3.333,3.333S10.827,16.667,12.667,16.667z
		 M10.533,13.333c0,1.18,0.954,2.134,2.134,2.134c1.18,0,2.133-0.954,2.133-2.134S13.847,11.2,12.667,11.2
		C11.487,11.2,10.533,12.153,10.533,13.333z"/>
</g>
</svg>
