<?xml version="1.0" encoding="utf-8"?>
<!-- Generator: Adobe Illustrator 16.0.0, SVG Export Plug-In . SVG Version: 6.00 Build 0)  -->
<!DOCTYPE svg PUBLIC "-//W3C//DTD SVG 1.1//EN" "http://www.w3.org/Graphics/SVG/1.1/DTD/svg11.dtd">
<svg version="1.1" id="Layer_2" xmlns="http://www.w3.org/2000/svg" xmlns:xlink="http://www.w3.org/1999/xlink" x="0px" y="0px"
	 width="1290.508px" height="712.352px" viewBox="-5357.095 -276.552 1290.508 712.352"
	 enable-background="new -5357.095 -276.552 1290.508 712.352" xml:space="preserve">
<g>
	<path fill="#EB8523" d="M-5168.016,415.798c-8.47-0.004-23.628-4.018-29.99-30.861c-2.173-9.16-2.74-17.928-2.798-18.896
		l-0.034-0.592V11.849l-123.126-72.042l-1.82-1.82c-12.8-12.8-17.15-35.659,0-52.811c3.347-3.347,9.576-9.575,119.225-71.884
		c50.51-28.702,100.272-56.386,105.489-59.287c3.963-2.439,18.353-10.559,34.283-10.559c9.899,0,42.202,3.904,42.202,54.136
		c0,55.863-0.01,394.035-0.01,394.035c0.304,47.184-20.416,82.999-21.298,84.501l-0.511,0.87l-0.596,0.813
		c-8.283,11.313-81.451,111.044-99.8,128.599c-6.517,6.234-13.65,9.395-21.207,9.395
		C-5168.01,415.798-5168.013,415.798-5168.016,415.798z"/>
	<path fill="#FFFFFF" d="M-5066.788-236.552c11.252,0,22.201,6.979,22.201,34.136c0,55.863-0.009,388.254-0.009,388.254v5.839
		c0.292,42.251-18.543,74.313-18.543,74.313s-79.882,109.117-97.488,125.962c-2.833,2.709-5.274,3.846-7.383,3.846
		c-10.993,0-12.831-30.943-12.831-30.943V191.676V0.38l-130.803-76.534c0,0-12.263-12.263,0-24.524
		c12.263-12.264,220.729-128.078,220.729-128.078S-5078.682-236.552-5066.788-236.552 M-5066.788-276.552
		c-20.364,0-37.892,9.343-44.376,13.288c-6.905,3.84-55.734,31.017-105.276,59.17c-111.999,63.644-118.102,69.747-123.486,75.131
		c-15.745,15.745-21.075,37.351-14.261,57.794c4.079,12.236,11.333,20.37,14.262,23.299l3.641,3.642l4.442,2.6l111.004,64.95
		v168.355v173.178v1.188l0.07,1.186c0.111,1.871,0.793,11.742,3.301,22.326c2.024,8.539,4.772,15.668,8.401,21.795
		c9.203,15.539,24.169,24.451,41.059,24.451c8.857,0,22.125-2.594,35.034-14.941c6.211-5.943,18.6-19.734,59.625-74.11
		c22.09-29.276,42.285-56.854,42.486-57.128l1.191-1.628l1.021-1.739c2.497-4.251,24.371-42.998,24.054-94.711v-5.702
		c0,0.001,0.009-332.391,0.009-388.254c0-22.095-5.148-39.222-15.742-52.359C-5031.652-268.82-5048.151-276.552-5066.788-276.552
		L-5066.788-276.552z"/>
</g>
<g>
	<path fill="#194B88" d="M-4680.136,368.056c-88.92,0-163.785-31.297-216.504-90.508c-46.563-52.298-72.205-122.515-72.205-197.718
		c0-36.398,6.044-71.837,17.966-105.333c12.431-34.928,30.7-66.095,54.302-92.635c52.75-59.319,127.595-90.673,216.441-90.673
		c40.9,0,78.701,7.54,112.352,22.409l13.476,5.955l-17.59,152.146l-25.743-13.345c-16.834-8.728-39.89-20.681-82.492-20.681
		c-42.509,0-77.984,15.03-102.594,43.465c-22.158,25.604-34.361,60.316-34.361,97.743c0,68.01,42.857,141.207,136.955,141.207
		c46.51,0,80.422-14.979,92.844-21.418l25.397-13.167l19.654,153.059l-14.221,5.817
		C-4591.075,358.54-4640.776,368.056-4680.136,368.056z"/>
	<path fill="#FFFFFF" d="M-4680.136-188.811c36.978,0,72.474,6.652,104.268,20.703l-12.568,108.704
		c-19.966-10.351-45.85-22.924-91.698-22.924c-209.272,0-209.272,322.415,0,322.415c45.85,0,82.082-13.311,102.05-23.662
		l14.054,109.442c-32.539,13.312-79.126,22.187-116.104,22.187C-5038.783,348.055-5038.044-188.811-4680.136-188.811
		 M-4680.136-228.811c-48.514,0-93.447,8.896-133.555,26.444c-37.745,16.515-70.661,40.381-97.833,70.938
		c-25.32,28.473-44.899,61.854-58.198,99.22c-12.688,35.654-19.123,73.349-19.123,112.039c0,38.662,6.426,76.316,19.098,111.917
		c13.287,37.328,32.857,70.67,58.17,99.1c27.165,30.511,60.082,54.339,97.838,70.823c40.104,17.508,85.057,26.387,133.604,26.387
		c42.362,0,93.88-9.879,131.248-25.166l28.443-11.635l-3.915-30.479l-14.053-109.442l-7.288-56.752l-50.798,26.335
		c-11.12,5.766-41.528,19.174-83.639,19.174c-37.05,0-66.479-12.298-87.471-36.554c-18.737-21.651-29.484-52.506-29.484-84.653
		c0-60.332,36.164-121.208,116.955-121.208c37.729,0,57.445,10.223,73.288,18.437l51.485,26.689l6.661-57.607l12.568-108.705
		l3.384-29.271l-26.951-11.909C-4595.912-220.698-4636.433-228.811-4680.136-228.811L-4680.136-228.811z"/>
</g>
<g>
	<path fill="#194B88" d="M-4229.199,368.056c-88.92,0-163.787-31.297-216.505-90.508c-46.563-52.298-72.206-122.515-72.206-197.718
		c0-36.398,6.044-71.837,17.965-105.333c12.431-34.928,30.701-66.095,54.302-92.635c52.75-59.319,127.595-90.673,216.443-90.673
		c40.897,0,78.697,7.54,112.349,22.409l13.477,5.955l-17.592,152.147l-25.742-13.347c-16.834-8.729-39.891-20.682-82.492-20.682
		c-42.508,0-77.985,15.03-102.594,43.465c-22.159,25.604-34.362,60.316-34.362,97.743c0,68.009,42.857,141.207,136.956,141.207
		c46.51,0,80.422-14.979,92.844-21.418l25.398-13.167l19.652,153.059l-14.221,5.817
		C-4140.14,358.54-4189.841,368.056-4229.199,368.056z"/>
	<path fill="#FFFFFF" d="M-4229.199-188.811c36.977,0,72.471,6.652,104.266,20.703l-12.567,108.707
		c-19.969-10.354-45.852-22.927-91.697-22.927c-209.274,0-209.274,322.415,0,322.415c45.847,0,82.082-13.311,102.049-23.662
		l14.053,109.442c-32.538,13.312-79.125,22.187-116.102,22.187C-4587.85,348.055-4587.109-188.811-4229.199-188.811
		 M-4229.199-228.811c-48.514,0-93.448,8.896-133.555,26.444c-37.745,16.515-70.661,40.381-97.833,70.938
		c-25.32,28.473-44.9,61.854-58.199,99.22c-12.689,35.654-19.123,73.351-19.123,112.039c0,38.662,6.425,76.316,19.097,111.918
		c13.287,37.327,32.858,70.669,58.17,99.1c27.165,30.51,60.083,54.338,97.838,70.822c40.106,17.508,85.057,26.387,133.604,26.387
		c42.362,0,93.881-9.879,131.247-25.166l28.441-11.635l-3.914-30.479l-14.053-109.442l-7.288-56.753l-50.797,26.337
		c-11.12,5.765-41.529,19.173-83.639,19.173c-37.05,0-66.479-12.298-87.471-36.554c-18.738-21.651-29.485-52.506-29.485-84.653
		c0-60.332,36.164-121.208,116.956-121.208c37.727,0,57.443,10.224,73.286,18.438l51.486,26.692l6.661-57.609l12.567-108.707
		l3.385-29.271l-26.952-11.909C-4144.979-220.698-4185.499-228.811-4229.199-228.811L-4229.199-228.811z"/>
</g>
<path fill="none" stroke="#0037F8" stroke-miterlimit="10" d="M-4066.587,188.622"/>
<g>
	<linearGradient id="SVGID_1_" gradientUnits="userSpaceOnUse" x1="-5230.8965" y1="367.0618" x2="-5081.5088" y2="46.6992">
		<stop  offset="0.8" style="stop-color:#EB8523"/>
		<stop  offset="1" style="stop-color:#B56011"/>
	</linearGradient>
	<path fill="url(#SVGID_1_)" d="M-5180.841,0.38v191.296v173.179c0,0,1.838,30.943,12.831,30.943c2.108,0,4.55-1.137,7.383-3.846
		c17.606-16.846,97.488-125.962,97.488-125.962s18.835-32.063,18.543-74.313v-5.839c0,0,0.001-45.541,0.003-105.738L-5180.841,0.38z
		"/>
</g>
</svg>
