<?xml version="1.0" encoding="utf-8"?>
<!-- Generator: Adobe Illustrator 16.0.0, SVG Export Plug-In . SVG Version: 6.00 Build 0)  -->
<!DOCTYPE svg PUBLIC "-//W3C//DTD SVG 1.1//EN" "http://www.w3.org/Graphics/SVG/1.1/DTD/svg11.dtd">
<svg version="1.1" id="Layer_3" xmlns="http://www.w3.org/2000/svg" xmlns:xlink="http://www.w3.org/1999/xlink" x="0px" y="0px"
	 width="64px" height="84px" viewBox="-7 -17.399 64 84" enable-background="new -7 -17.399 64 84" xml:space="preserve">
<g>
	
		<radialGradient id="SVGID_1_" cx="154.2002" cy="2085.998" r="26.3511" gradientTransform="matrix(1 0 0 0.3542 -129.2002 -681.5946)" gradientUnits="userSpaceOnUse">
		<stop  offset="0" style="stop-color:#000000;stop-opacity:0.3"/>
		<stop  offset="1" style="stop-color:#000000;stop-opacity:0"/>
	</radialGradient>
	<ellipse fill="url(#SVGID_1_)" cx="25" cy="57.266" rx="26.348" ry="9.334"/>
	<path fill="#C0CA33" d="M25-16.6c-17.673,0-32,14.327-32,32c0,17.673,8.2,22.668,32,41.865c23.8-19.2,32-24.192,32-41.865
		C57-2.273,42.674-16.6,25-16.6z"/>
	<path fill="#FFFFFF" d="M6.693,20.802c0.015,4.777,3.879,8.625,8.652,8.625c4.779,0,8.651-3.876,8.651-8.652v-4.977
		c0.324-0.006,0.657-0.001,1-0.001c0.343,0,0.675-0.004,1.001,0.001v4.977c0,4.778,3.874,8.652,8.651,8.652
		c4.77,0,8.632-3.848,8.651-8.625c0.007-1.376-0.312-2.674-0.877-3.829L36.996,5.412c-0.247-0.532-0.477-1.072-0.719-1.606
		c-0.828-1.872-2.69-3.182-4.865-3.197c-2.979-0.023-5.414,2.466-5.414,5.446v2.148c-0.326-0.061-0.66-0.091-1.003-0.091
		c-0.343,0-0.674,0.032-1,0.091V6.055c0-2.98-2.436-5.469-5.411-5.446c-2.177,0.017-4.042,1.327-4.873,3.197
		c-0.236,0.534-0.467,1.074-0.717,1.606L7.569,16.973C7.009,18.126,6.688,19.425,6.693,20.802z M34.737,14.114
		c3.679,0,6.659,2.98,6.659,6.659c0,3.679-2.98,6.662-6.659,6.662c-3.683,0-6.666-2.983-6.666-6.662
		C28.071,17.094,31.055,14.114,34.737,14.114z M15.319,14.114c3.682,0,6.664,2.98,6.664,6.659c0,3.679-2.982,6.662-6.664,6.662
		c-3.679,0-6.661-2.983-6.661-6.662C8.658,17.094,11.64,14.114,15.319,14.114z"/>
	<path fill="#FFFFFF" d="M12.693,18.511c0.416,0.812,0.627,1.697,0.889,2.566c0.236,0.783,0.558,1.562,1.04,2.196
		c0.8,1.047,1.926,1.774,3.19,2.092c1.626-0.884,2.729-2.608,2.729-4.59c0-2.882-2.336-5.218-5.22-5.218
		c-1.458,0-2.775,0.596-3.723,1.561C12.053,17.49,12.417,17.973,12.693,18.511z"/>
	<path fill="#FFFFFF" d="M32.192,18.474c0.413,0.808,0.624,1.695,0.884,2.563c0.231,0.783,0.553,1.566,1.04,2.193
		c0.798,1.053,1.928,1.777,3.191,2.095c1.625-0.885,2.729-2.609,2.729-4.589c0-2.884-2.333-5.221-5.221-5.221
		c-1.456,0-2.775,0.6-3.725,1.564C31.552,17.452,31.913,17.933,32.192,18.474z"/>
</g>
</svg>
