<?xml version="1.0" encoding="utf-8"?>
<!-- Generator: Adobe Illustrator 16.0.0, SVG Export Plug-In . SVG Version: 6.00 Build 0)  -->
<!DOCTYPE svg PUBLIC "-//W3C//DTD SVG 1.1//EN" "http://www.w3.org/Graphics/SVG/1.1/DTD/svg11.dtd">
<svg version="1.1" id="Capa_1" xmlns="http://www.w3.org/2000/svg" xmlns:xlink="http://www.w3.org/1999/xlink" x="0px" y="0px"
	 width="113px" height="113px" viewBox="200.5 201.5 113 113" enable-background="new 200.5 201.5 113 113" xml:space="preserve">
<g>
	
		<image overflow="visible" opacity="0.5" width="113" height="113" xlink:href="33AEAE51.png"  transform="matrix(1 0 0 1 200.5002 201.4998)">
	</image>
	<g>
		<path fill="#D80027" d="M306,256c0,27.617-22.383,50-50,50s-50-22.383-50-50s22.383-50,50-50S306,228.383,306,256z"/>
	</g>
</g>
<path fill="#FFFFFF" d="M294.464,256c0,21.233-17.23,38.464-38.464,38.464c-21.239,0-38.463-17.23-38.463-38.464
	c0-21.239,17.225-38.463,38.463-38.463C277.234,217.536,294.464,234.761,294.464,256z"/>
<path fill="#D80027" d="M249.77,255.998c0-11.869,7.36-22.02,17.767-26.143c-3.209-1.267-6.692-1.97-10.348-1.97
	c-15.528,0-28.109,12.59-28.109,28.112c0,15.536,12.581,28.12,28.109,28.12c3.655,0,7.139-0.703,10.348-1.966
	C257.13,278.038,249.77,267.875,249.77,255.998z"/>
</svg>
