<?xml version="1.0" encoding="utf-8"?>
<!-- Generator: Adobe Illustrator 16.0.0, SVG Export Plug-In . SVG Version: 6.00 Build 0)  -->
<!DOCTYPE svg PUBLIC "-//W3C//DTD SVG 1.1//EN" "http://www.w3.org/Graphics/SVG/1.1/DTD/svg11.dtd">
<svg version="1.1" id="Layer_3" xmlns="http://www.w3.org/2000/svg" xmlns:xlink="http://www.w3.org/1999/xlink" x="0px" y="0px"
	 width="64px" height="84px" viewBox="-7 -17.398 64 84" enable-background="new -7 -17.398 64 84" xml:space="preserve">
<radialGradient id="SVGID_1_" cx="154.2002" cy="2086.002" r="26.3511" gradientTransform="matrix(1 0 0 0.3542 -129.2002 -681.5946)" gradientUnits="userSpaceOnUse">
	<stop  offset="0" style="stop-color:#000000;stop-opacity:0.3"/>
	<stop  offset="1" style="stop-color:#000000;stop-opacity:0"/>
</radialGradient>
<ellipse fill="url(#SVGID_1_)" cx="25" cy="57.267" rx="26.349" ry="9.334"/>
<path fill="#616161" d="M25-16.601C7.326-16.601-7-2.274-7,15.4c0,17.673,8.2,22.668,32,41.867C48.8,38.065,57,33.073,57,15.4
	C57-2.274,42.674-16.601,25-16.601z"/>
<path fill="#FFFFFF" d="M42.404-0.34H24.277v-1.969c0-0.958-0.772-1.732-1.732-1.732c-0.962,0-1.734,0.774-1.734,1.732v1.971h-3.184
	c-0.645,0-1.231,0.357-1.529,0.927L11.15,9.917l-4.941,2.14c-2.198,0.958-3.676,3.531-3.676,6.393v3.541
	c0,3.067,1.672,5.652,3.963,6.496c0.688-2.955,3.38-5.715,7.192-5.715c3.905,0,6.665,2.911,7.258,6.008h6.834
	c0.595-3.088,3.354-6.008,7.247-6.008c3.908,0,6.666,2.911,7.261,6.008c0,0,1.654,0.13,1.842-1.732V1.392
	C44.137,0.434,43.364-0.34,42.404-0.34L42.404-0.34z M34.396,13.687l-2.775,0.018l0.017,3.047c0.01,0.96-0.764,1.74-1.721,1.74
	h-0.009c-0.95,0-1.73-0.772-1.73-1.722l-0.018-3.049l-2.778,0.018h-0.008c-0.95,0-1.724-0.773-1.734-1.724
	c-0.006-0.958,0.764-1.741,1.724-1.741l2.777-0.018L28.121,7.21c-0.008-0.959,0.766-1.741,1.725-1.741h0.008
	c0.951,0,1.734,0.772,1.734,1.722l0.015,3.049l2.777-0.016h0.01c0.95,0,1.723,0.771,1.732,1.72
	C36.128,12.897,35.357,13.678,34.396,13.687z"/>
<circle fill="#FFFFFF" cx="35.043" cy="30.167" r="3.906"/>
<circle fill="#FFFFFF" cx="13.691" cy="30.167" r="3.906"/>
</svg>
