<?xml version="1.0" encoding="utf-8"?>
<!-- Generator: Adobe Illustrator 16.0.0, SVG Export Plug-In . SVG Version: 6.00 Build 0)  -->
<!DOCTYPE svg PUBLIC "-//W3C//DTD SVG 1.1//EN" "http://www.w3.org/Graphics/SVG/1.1/DTD/svg11.dtd">
<svg version="1.1" id="Layer_3" xmlns="http://www.w3.org/2000/svg" xmlns:xlink="http://www.w3.org/1999/xlink" x="0px" y="0px"
	 width="64px" height="84px" viewBox="-7.006 -13.394 64 84" enable-background="new -7.006 -13.394 64 84" xml:space="preserve">
<radialGradient id="SVGID_1_" cx="687.8032" cy="8572.665" r="26.3599" gradientTransform="matrix(1 0 0 0.3542 -662.7988 -2975.1697)" gradientUnits="userSpaceOnUse">
	<stop  offset="0" style="stop-color:#000000;stop-opacity:0.3"/>
	<stop  offset="1" style="stop-color:#000000;stop-opacity:0"/>
</radialGradient>
<ellipse fill="url(#SVGID_1_)" cx="25.004" cy="61.269" rx="26.357" ry="9.338"/>
<path fill="#F4511E" stroke="#892913" stroke-width="4" stroke-miterlimit="10" d="M44.349-11.394H5.639
	c-5.87,0-10.645,4.776-10.645,10.644v2.25v1.253v0.247v10.25v6.007h0.017l0.029,0.938c0.431,14.118,7.226,19.561,25.385,34.11
	c1.454,1.164,2.979,2.387,4.579,3.676c1.602-1.291,3.129-2.515,4.587-3.678c18.153-14.548,24.946-19.991,25.378-34.106l0.024-0.423
	v-6.524V3.001V2.754V1.501v-2.25C54.994-6.618,50.214-11.394,44.349-11.394z"/>
<g>
	<circle fill="#FFFFFF" cx="14.634" cy="15.85" r="1.588"/>
	<circle fill="#FFFFFF" cx="38.405" cy="15.85" r="1.588"/>
	<path fill="#FFFFFF" d="M38.773,25.349l0.479-5.875c0.055-0.639-0.424-1.2-1.061-1.252l-2.069-0.172
		c-0.639-0.052-1.207,0.423-1.255,1.065l-0.017,0.199l1.511-0.349l-2.06,1.131c-0.166,0.09-0.296,0.243-0.356,0.427l-1.112,3.249
		c-0.07,0.209-0.046,0.429,0.054,0.609c-0.299,0-11.27,0-15.223,0c0.086-0.304-0.021-0.643-0.295-0.836l-2.56-1.807l-0.439-1.998
		l0.757,1.413l0.197,0.139l0.152-1.815c0.052-0.639-0.423-1.202-1.064-1.253l-2.067-0.173c-0.638-0.052-1.201,0.423-1.249,1.063
		l-0.369,5.952l0.487,3.176l-1.188,4.329c-0.136,0.493,0.154,1.002,0.647,1.138c0.496,0.134,1.006-0.156,1.138-0.652l1.24-4.519
		c0.037-0.125,0.042-0.255,0.022-0.385l-0.45-2.932l0.361,0.029l1.105,3.009l-0.922,4.36c-0.107,0.502,0.213,0.99,0.714,1.1
		c0.498,0.106,0.992-0.216,1.098-0.714l0.979-4.619c0.036-0.171,0.025-0.347-0.035-0.511l-0.93-2.529l0.059-0.741
		c-0.749-0.529-1.666-1.176-1.994-1.41c-0.233-0.165-0.35-0.43-0.336-0.694l0.144-2.434l0.501,2.29
		c0.042,0.193,0.151,0.359,0.308,0.468l2.806,1.98c0.117,0.083,0.249,0.127,0.381,0.142c-0.006,0.034-0.01,0.073-0.01,0.109
		c0,0.375,0.306,0.674,0.675,0.674H32.95c0.377,0,0.675-0.305,0.675-0.674c0-0.095-0.019-0.182-0.053-0.263
		c0.32,0,0.622-0.202,0.729-0.523l1.014-2.966l1.793-0.985l-1.142,1.126l-1.046,3.039c-0.08,0.24-0.218,0.453-0.42,0.623
		l0.481,3.137l-1.184,4.328c-0.139,0.492,0.154,1.004,0.647,1.137c0.495,0.135,1.001-0.155,1.142-0.651l1.235-4.519
		c0.031-0.125,0.045-0.256,0.023-0.385l-0.446-2.93l0.36,0.028l1.108,3.011l-0.926,4.358c-0.104,0.5,0.214,0.991,0.718,1.099
		c0.498,0.105,0.989-0.216,1.092-0.713l0.981-4.618c0.036-0.171,0.028-0.349-0.035-0.512L38.773,25.349z"/>
	<path fill="#FFFFFF" d="M22.042,23.568l1.158,0.005l-1.269-1.307l2.2,1.412c0.179,0.112,0.403,0.126,0.588,0.046l0.82-0.359
		l1.455-0.641c0.315-0.136,0.457-0.504,0.322-0.821c-0.14-0.314-0.511-0.455-0.821-0.32l-1.976,0.864l-1.99-1.279l1.959,0.642
		l1.762-0.774c0.62-0.27,1.336,0.011,1.609,0.628c0.269,0.613-0.012,1.333-0.625,1.605c-0.417,0.182-0.316,0.138-0.738,0.324
		c0.608,0.003,0.667,0.013,0.836-0.024c0.341,0.009,0.648-0.198,0.766-0.513l0.97-2.579c0.586,0.738,2.013,2.536,2.207,2.78
		c0.265,0.341,0.765,0.396,1.106,0.125c0.341-0.271,0.394-0.768,0.126-1.106l-3.072-3.872c-0.176-0.225-0.46-0.332-0.742-0.287
		c-0.278,0.044-0.514,0.234-0.61,0.5c-0.314,0.831-0.446,1.191-0.762,2.021l-5.228-0.192c-0.436-0.018-0.8,0.33-0.801,0.766
		l-0.013,1.573C21.275,23.215,21.618,23.565,22.042,23.568z"/>
	<path fill="#FFFFFF" d="M19.133,23.518c0.81,0.004,1.462-0.649,1.469-1.451c0.004-0.802-0.641-1.464-1.452-1.469
		c-0.806-0.002-1.46,0.646-1.466,1.451C17.676,22.855,18.326,23.511,19.133,23.518z"/>
</g>
</svg>
