<?xml version="1.0" encoding="utf-8"?>
<!-- Generator: Adobe Illustrator 16.0.0, SVG Export Plug-In . SVG Version: 6.00 Build 0)  -->
<!DOCTYPE svg PUBLIC "-//W3C//DTD SVG 1.1//EN" "http://www.w3.org/Graphics/SVG/1.1/DTD/svg11.dtd">
<svg version="1.1" id="Layer_3" xmlns="http://www.w3.org/2000/svg" xmlns:xlink="http://www.w3.org/1999/xlink" x="0px" y="0px"
	 width="64px" height="84px" viewBox="-7.006 -13.394 64 84" enable-background="new -7.006 -13.394 64 84" xml:space="preserve">
<radialGradient id="SVGID_1_" cx="687.8032" cy="8572.665" r="26.3599" gradientTransform="matrix(1 0 0 0.3542 -662.7988 -2975.1697)" gradientUnits="userSpaceOnUse">
	<stop  offset="0" style="stop-color:#000000;stop-opacity:0.3"/>
	<stop  offset="1" style="stop-color:#000000;stop-opacity:0"/>
</radialGradient>
<ellipse fill="url(#SVGID_1_)" cx="25.004" cy="61.269" rx="26.357" ry="9.338"/>
<path fill="#F4511E" stroke="#892913" stroke-width="4" stroke-miterlimit="10" d="M44.349-11.394H5.639
	c-5.87,0-10.645,4.776-10.645,10.644v2.25v1.253v0.247v10.25v6.007h0.017l0.029,0.938c0.431,14.118,7.226,19.561,25.385,34.11
	c1.454,1.164,2.979,2.387,4.579,3.676c1.602-1.291,3.129-2.515,4.587-3.678c18.153-14.548,24.946-19.991,25.378-34.106l0.024-0.423
	v-6.524V3.001V2.754V1.501v-2.25C54.994-6.618,50.214-11.394,44.349-11.394z"/>
<g>
	<path fill="#FFFFFF" d="M35.532,16.248h-6.967V14.26c0-0.439-0.359-0.797-0.8-0.797H22.22c-0.438,0-0.796,0.357-0.796,0.797v1.988
		h-6.966c-1.358,0-2.465,1.105-2.465,2.462v13.369c0,1.357,1.106,2.462,2.465,2.462h21.07c1.36,0,2.465-1.108,2.465-2.462V18.71
		C37.997,17.353,36.892,16.248,35.532,16.248z M23.019,15.056h3.953v1.192h-3.953V15.056z M24.997,31.759
		c-3.498,0-6.346-2.856-6.346-6.363c0-3.508,2.846-6.363,6.346-6.363c3.498,0,6.343,2.855,6.343,6.363
		C31.339,28.904,28.495,31.759,24.997,31.759z"/>
	<path fill="#FFFFFF" d="M27.412,23.868h-0.893V22.97c0-0.461-0.37-0.835-0.833-0.835h-1.38c-0.459,0-0.833,0.373-0.833,0.835v0.898
		H22.58c-0.458,0-0.832,0.373-0.832,0.835v1.386c0,0.46,0.37,0.836,0.832,0.836h0.894v0.895c0,0.46,0.37,0.838,0.833,0.838h1.38
		c0.46,0,0.833-0.374,0.833-0.838v-0.895h0.893c0.461,0,0.832-0.374,0.832-0.837v-1.387C28.244,24.241,27.874,23.868,27.412,23.868z
		"/>
</g>
</svg>
