<?xml version="1.0" encoding="utf-8"?>
<!-- Generator: Adobe Illustrator 16.0.0, SVG Export Plug-In . SVG Version: 6.00 Build 0)  -->
<!DOCTYPE svg PUBLIC "-//W3C//DTD SVG 1.1//EN" "http://www.w3.org/Graphics/SVG/1.1/DTD/svg11.dtd">
<svg version="1.1" id="Layer_3" xmlns="http://www.w3.org/2000/svg" xmlns:xlink="http://www.w3.org/1999/xlink" x="0px" y="0px"
	 width="63.999px" height="84.001px" viewBox="-7.006 -13.394 63.999 84.001" enable-background="new -7.006 -13.394 63.999 84.001"
	 xml:space="preserve">
<radialGradient id="SVGID_1_" cx="679.4023" cy="-9202.4912" r="26.3604" gradientTransform="matrix(1 0 0 -0.3542 -654.3984 -3198.2527)" gradientUnits="userSpaceOnUse">
	<stop  offset="0" style="stop-color:#000000;stop-opacity:0.3"/>
	<stop  offset="1" style="stop-color:#000000;stop-opacity:0"/>
</radialGradient>
<ellipse fill="url(#SVGID_1_)" cx="25.004" cy="61.27" rx="26.357" ry="9.338"/>
<path fill="#F4511E" stroke="#892913" stroke-width="4" stroke-miterlimit="10" d="M44.35-11.394H5.639
	c-5.87,0-10.645,4.776-10.645,10.644V1.5v1.253V3v10.25v6.007h0.017l0.029,0.938c0.431,14.118,7.226,19.561,25.385,34.11
	c1.454,1.164,2.979,2.387,4.579,3.676c1.602-1.291,3.129-2.515,4.587-3.678c18.153-14.548,24.946-19.991,25.378-34.106l0.024-0.423
	V13.25V3.001V2.754V1.501v-2.25C54.994-6.618,50.214-11.394,44.35-11.394z"/>
<g>
	<g>
		<g>
			<path fill="#FFFFFF" d="M24.995,8.953c-3.243,0-5.881,2.639-5.881,5.881v3.047c0,3.242,2.638,5.881,5.881,5.881
				c3.242,0,5.879-2.639,5.879-5.881v-3.047C30.874,11.592,28.237,8.953,24.995,8.953z"/>
		</g>
	</g>
	<g>
		<g>
			<path fill="#FFFFFF" d="M37.962,31.425c-1.883-3.209-4.893-5.588-8.475-6.698c-0.083-0.025-0.173-0.004-0.234,0.058
				c-1.666,1.643-3.736,2.924-4.254,3.233c-0.553-0.353-2.88-1.87-4.264-3.233c-0.062-0.062-0.152-0.083-0.234-0.058
				c-3.582,1.111-6.592,3.49-8.474,6.698c-0.043,0.073-0.043,0.165,0,0.238c2.673,4.555,7.642,7.383,12.967,7.383
				c5.326,0,10.295-2.828,12.968-7.383C38.005,31.59,38.005,31.498,37.962,31.425z M32.991,33.179c0,0.13-0.123,0.229-0.253,0.229
				h-1.593c-0.129,0-0.271,0.111-0.271,0.241v1.647c0,0.129-0.069,0.229-0.199,0.229h-1.431c-0.13,0-0.252-0.1-0.252-0.229v-1.647
				c0-0.13-0.089-0.241-0.219-0.241h-1.661c-0.13,0-0.237-0.1-0.237-0.229v-1.418c0-0.13,0.107-0.234,0.237-0.234h1.661
				c0.13,0,0.219-0.105,0.219-0.236v-1.648c0-0.13,0.122-0.232,0.252-0.232h1.414c0.13,0,0.215,0.103,0.215,0.232v1.653
				c0,0.131,0.126,0.231,0.256,0.231h1.608c0.13,0,0.253,0.109,0.253,0.239V33.179L32.991,33.179z"/>
		</g>
	</g>
</g>
</svg>
