<?xml version="1.0" encoding="utf-8"?>
<!-- Generator: Adobe Illustrator 16.0.0, SVG Export Plug-In . SVG Version: 6.00 Build 0)  -->
<!DOCTYPE svg PUBLIC "-//W3C//DTD SVG 1.1//EN" "http://www.w3.org/Graphics/SVG/1.1/DTD/svg11.dtd">
<svg version="1.1" id="Layer_3" xmlns="http://www.w3.org/2000/svg" xmlns:xlink="http://www.w3.org/1999/xlink" x="0px" y="0px"
	 width="64px" height="84px" viewBox="-7.006 -13.394 64 84" enable-background="new -7.006 -13.394 64 84" xml:space="preserve">
<radialGradient id="SVGID_1_" cx="687.8032" cy="8572.665" r="26.3599" gradientTransform="matrix(1 0 0 0.3542 -662.7988 -2975.1697)" gradientUnits="userSpaceOnUse">
	<stop  offset="0" style="stop-color:#000000;stop-opacity:0.3"/>
	<stop  offset="1" style="stop-color:#000000;stop-opacity:0"/>
</radialGradient>
<ellipse fill="url(#SVGID_1_)" cx="25.004" cy="61.269" rx="26.357" ry="9.338"/>
<path fill="#F4511E" stroke="#892913" stroke-width="4" stroke-miterlimit="10" d="M44.349-11.394H5.639
	c-5.87,0-10.645,4.776-10.645,10.644v2.25v1.253v0.247v10.25v6.007h0.017l0.029,0.938c0.431,14.118,7.226,19.561,25.385,34.11
	c1.454,1.164,2.979,2.387,4.579,3.676c1.602-1.291,3.129-2.515,4.587-3.678c18.153-14.548,24.946-19.991,25.378-34.106l0.024-0.423
	v-6.524V3.001V2.754V1.501v-2.25C54.994-6.618,50.214-11.394,44.349-11.394z"/>
<g>
	<path fill="#FFFFFF" d="M35.917,14.403h-11.33v-1.23c0-0.598-0.483-1.083-1.083-1.083c-0.601,0-1.084,0.485-1.084,1.083v1.23
		h-1.987c-0.404,0-0.771,0.224-0.959,0.58l-3.092,5.831l-3.09,1.337c-1.374,0.599-2.298,2.208-2.298,3.996v2.213
		c0,1.919,1.046,3.535,2.479,4.061c0.429-1.847,2.113-3.571,4.496-3.571c2.439,0,4.163,1.819,4.534,3.755h4.273
		c0.369-1.929,2.094-3.755,4.53-3.755c2.44,0,4.165,1.819,4.538,3.755c0,0,1.035,0.081,1.149-1.083V15.485
		C36.999,14.887,36.517,14.403,35.917,14.403L35.917,14.403z M30.914,23.171l-1.737,0.012l0.011,1.904
		c0.007,0.601-0.476,1.087-1.076,1.087h-0.004c-0.596,0-1.083-0.482-1.083-1.075l-0.01-1.907l-1.738,0.011H25.27
		c-0.595,0-1.077-0.484-1.083-1.078c-0.003-0.6,0.478-1.088,1.077-1.088l1.737-0.011l-0.012-1.905
		c-0.006-0.6,0.479-1.087,1.076-1.087h0.005c0.598,0,1.086,0.482,1.086,1.076l0.008,1.905l1.736-0.01h0.009
		c0.593,0,1.075,0.483,1.084,1.076C31.995,22.677,31.512,23.165,30.914,23.171z"/>
	<circle fill="#FFFFFF" cx="31.313" cy="33.473" r="2.441"/>
	<circle fill="#FFFFFF" cx="17.969" cy="33.473" r="2.441"/>
</g>
</svg>
