<?xml version="1.0" encoding="utf-8"?>
<!-- Generator: Adobe Illustrator 16.0.0, SVG Export Plug-In . SVG Version: 6.00 Build 0)  -->
<!DOCTYPE svg PUBLIC "-//W3C//DTD SVG 1.1//EN" "http://www.w3.org/Graphics/SVG/1.1/DTD/svg11.dtd">
<svg version="1.1" id="Layer_3" xmlns="http://www.w3.org/2000/svg" xmlns:xlink="http://www.w3.org/1999/xlink" x="0px" y="0px"
	 width="64px" height="84px" viewBox="-7.006 -13.394 64 84" enable-background="new -7.006 -13.394 64 84" xml:space="preserve">
<radialGradient id="SVGID_1_" cx="687.8032" cy="8572.665" r="26.3599" gradientTransform="matrix(1 0 0 0.3542 -662.7988 -2975.1697)" gradientUnits="userSpaceOnUse">
	<stop  offset="0" style="stop-color:#000000;stop-opacity:0.3"/>
	<stop  offset="1" style="stop-color:#000000;stop-opacity:0"/>
</radialGradient>
<ellipse fill="url(#SVGID_1_)" cx="25.004" cy="61.269" rx="26.357" ry="9.338"/>
<path fill="#F4511E" stroke="#892913" stroke-width="4" stroke-miterlimit="10" d="M44.349-11.394H5.639
	c-5.87,0-10.645,4.776-10.645,10.644v2.25v1.253v0.247v10.25v6.007h0.017l0.029,0.938c0.431,14.118,7.226,19.561,25.385,34.11
	c1.454,1.164,2.979,2.387,4.579,3.676c1.602-1.291,3.129-2.515,4.587-3.678c18.153-14.548,24.946-19.991,25.378-34.106l0.024-0.423
	v-6.524V3.001V2.754V1.501v-2.25C54.994-6.618,50.214-11.394,44.349-11.394z"/>
<g>
	<path fill="#FFFFFF" d="M24.993,24.001c1.957,0,3.629-0.691,5.014-2.078c1.385-1.385,2.078-3.057,2.078-5.013
		c0-1.958-0.69-3.63-2.078-5.015c-1.386-1.384-3.057-2.078-5.014-2.078c-1.958,0-3.627,0.693-5.014,2.079
		c-1.386,1.384-2.077,3.057-2.077,5.014c0,1.957,0.691,3.627,2.077,5.014C21.364,23.31,23.035,24.001,24.993,24.001z"/>
	<path fill="#FFFFFF" d="M37.893,30.981c-0.069-0.773-0.217-1.622-0.443-2.546c-0.229-0.923-0.516-1.74-0.877-2.447
		c-0.357-0.709-0.854-1.344-1.495-1.904c-0.639-0.559-1.38-0.933-2.218-1.117c0.103,0.233,0.18,0.48,0.244,0.738
		c0.06,0.258,0.104,0.548,0.128,0.869c0.022,0.32,0.039,0.576,0.044,0.765c0.008,0.192,0.008,0.485,0,0.886
		c-0.008,0.399-0.013,0.662-0.013,0.784c0.728,0.418,1.307,0.997,1.727,1.727c0.427,0.734,0.639,1.518,0.639,2.355v1.646
		c0.396,0.352,0.592,0.789,0.592,1.306c0,0.492-0.171,0.911-0.519,1.257c-0.338,0.345-0.757,0.518-1.252,0.518
		c-0.492,0-0.912-0.173-1.258-0.518c-0.342-0.346-0.518-0.764-0.518-1.257c0-0.517,0.197-0.956,0.588-1.308v-1.645
		c0-0.641-0.232-1.194-0.7-1.663c-0.47-0.469-1.021-0.699-1.66-0.699c-0.64,0-1.2,0.229-1.664,0.699
		c-0.467,0.47-0.699,1.022-0.699,1.663v1.644c0.396,0.358,0.591,0.793,0.591,1.309c0,0.491-0.17,0.911-0.518,1.257
		c-0.339,0.345-0.761,0.518-1.253,0.518c-0.493,0-0.912-0.173-1.256-0.518c-0.347-0.346-0.519-0.764-0.519-1.257
		c0-0.517,0.196-0.956,0.592-1.309v-1.644c0-1.307,0.461-2.418,1.384-3.344c0.923-0.921,2.04-1.383,3.343-1.383v-1.183
		c0-0.762-0.152-1.337-0.462-1.719c-1.626,1.281-3.44,1.922-5.448,1.922c-2.007,0-3.82-0.641-5.445-1.922
		c-0.311,0.382-0.464,0.955-0.464,1.719v3.749c0.7,0.246,1.271,0.676,1.708,1.292c0.438,0.616,0.655,1.299,0.655,2.049
		c0,0.984-0.344,1.82-1.033,2.511c-0.69,0.692-1.526,1.035-2.512,1.035s-1.821-0.343-2.512-1.033
		c-0.688-0.691-1.032-1.527-1.032-2.512c0-0.753,0.215-1.435,0.645-2.05c0.43-0.616,1.004-1.047,1.718-1.29v-3.751
		c0-0.837,0.134-1.577,0.405-2.215c-0.839,0.185-1.576,0.558-2.217,1.117c-0.638,0.56-1.138,1.193-1.495,1.903
		c-0.355,0.708-0.649,1.523-0.877,2.447c-0.226,0.924-0.375,1.772-0.444,2.546c-0.066,0.779-0.099,1.585-0.099,2.423
		c0,1.489,0.449,2.659,1.348,3.507c0.898,0.849,2.094,1.275,3.583,1.275h16.141c1.489,0,2.683-0.426,3.583-1.275
		c0.901-0.848,1.346-2.02,1.346-3.507C37.992,32.565,37.957,31.758,37.893,30.981z"/>
</g>
</svg>
