<?xml version="1.0" encoding="utf-8"?>
<!-- Generator: Adobe Illustrator 16.0.0, SVG Export Plug-In . SVG Version: 6.00 Build 0)  -->
<!DOCTYPE svg PUBLIC "-//W3C//DTD SVG 1.1//EN" "http://www.w3.org/Graphics/SVG/1.1/DTD/svg11.dtd">
<svg version="1.1" id="Layer_1" xmlns="http://www.w3.org/2000/svg" xmlns:xlink="http://www.w3.org/1999/xlink" x="0px" y="0px"
	 width="943.172px" height="189.089px" viewBox="-10 66.531 943.172 189.089" enable-background="new -10 66.531 943.172 189.089"
	 xml:space="preserve">
<g>
	<path fill="#003399" d="M141.36,134.164c11.798-3.776,16.057-13.854,16.057-13.854H70.992c-7.917,2.64-11.79,13.854-11.79,13.854
		h34.501l-14.317,54.51h26.024l13.889-54.51H141.36z"/>
	<path fill="#003399" d="M140.191,188.435l15.362-54.271c0,0,3.054-9.89,11.541-13.625h37.003l5.092,46.849l24.441-38.699
		c0,0,5.093-7.13,9.505-7.81h40.994l-20.625,67.895h-27.158l14.936-52.389l-29.874,46.619c0,0-3.055,4.412-6.45,5.77h-30.89
		l-6.11-51.938l-14.598,51.6H140.191L140.191,188.435z"/>
	<path fill="#FF6600" d="M237.115,110.808c26.119-2.668,39.035-11.361,36.563-25.94c-3.263-19.266-62.006-34.832-103.039,15.598
		c1.023-0.539,2.104-1.088,3.244-1.651c21.33-10.577,65.962-17.648,70.609-6.789C247.247,98.457,245.268,105.126,237.115,110.808z"
		/>
	<path fill="#CC0033" d="M273.423,103.207c7.617-2.346,15.97-4.166,24.707-4.166c12.403,0,21.167,2.146,26.576,3.777
		c-0.021-8.694-3.108-17.255-14.76-17.662C295.34,84.647,284.273,90.559,273.423,103.207z"/>
</g>
<g>
	<g>
		<path fill="#2F5A78" d="M460.61,189.273h-14.847l-4.81-14.332h-28.059l-4.81,14.332h-14.848l25.905-68.19h15.564L460.61,189.273z
			 M426.923,132.549l-10.238,31.026h20.48L426.923,132.549z"/>
		<path fill="#2F5A78" d="M515.286,189.273l-31.845-44.641v44.641h-13.72v-68.19h13.72l31.845,44.645v-44.645h13.721v68.188
			L515.286,189.273L515.286,189.273z"/>
		<path fill="#2F5A78" d="M561.259,190.503c-7.271,0-14.849-1.639-20.993-4.613l2.97-10.957c4.916,2.355,11.16,4.199,17.611,4.199
			c6.86,0,11.572-2.869,11.572-8.187c0-4.919-3.996-7.577-12.492-10.957c-11.88-4.921-18.74-10.443-18.74-20.584
			c0.002-12.589,9.217-19.555,23.551-19.555c7.373,0,13.313,1.332,19.047,4.301l-2.663,10.958
			c-4.812-2.356-10.14-3.893-15.563-3.893c-6.042,0-10.033,2.146-10.033,6.964c0,4.403,2.251,6.144,10.443,9.726
			c10.854,4.607,20.787,10.03,20.787,21.911C586.755,181.801,576.514,190.503,561.259,190.503z"/>
		<path fill="#2F5A78" d="M612.146,189.273H597.81v-68.19h14.336V189.273z"/>
	</g>
	<g>
		<g>
			<path fill="#06BCD4" d="M641.25,190.503c-5.729,0-12.608-1.537-17.192-3.894l1.051-3.788c5.254,2.457,10.125,3.788,15.95,3.788
				c9.934,0,16.237-5.429,16.237-14.332c0-9.521-7.64-13.214-15.474-17.305c-9.551-4.915-16.237-9.008-16.237-19.146
				c0-10.957,8.504-15.976,17.957-15.976c5.73,0,11.177,1.435,15.379,3.79l-0.955,3.89c-4.584-2.355-9.359-3.789-14.232-3.789
				c-8.022,0-13.945,3.789-13.945,11.876c0,7.678,4.203,10.957,13.088,15.256c8.118,4.099,18.625,9.628,18.625,21.3
				C661.499,182.926,653.186,190.503,641.25,190.503z"/>
			<path fill="#06BCD4" d="M700.377,140.741h4.297L681.37,210.37h-4.105l7.067-21.1l-15.951-48.529h4.298l13.754,43.108
				L700.377,140.741z"/>
			<path fill="#06BCD4" d="M724.738,190.299c-4.012,0-9.742-1.126-12.895-2.769l0.86-3.891c4.013,1.843,8.022,2.765,12.034,2.765
				c6.878,0,12.034-3.379,12.034-9.623c0-5.94-5.539-8.702-10.792-11.164c-7.167-3.277-13.47-6.551-13.47-13.924
				c0-7.678,5.73-11.98,13.851-11.98c4.778,0,8.979,1.023,12.514,3.175l-0.956,3.788c-4.106-2.05-7.546-3.075-11.653-3.075
				c-6.111,0-9.551,2.771-9.551,7.993c0,5.527,5.063,7.367,10.411,10.136c4.965,2.451,13.852,5.529,13.852,14.949
				C740.977,184.564,734.097,190.299,724.738,190.299z"/>
			<path fill="#06BCD4" d="M767.531,190.095c-9.074,0-12.034-6.759-12.034-16.589v-28.976h-8.311v-3.79h8.311v-12.49h4.203v12.49
				h15.95v3.79H759.7v28.772c0,8.601,1.623,13,8.214,13c2.673,0,4.967-0.511,7.354-1.433l0.481,3.589
				C773.834,189.273,770.493,190.095,767.531,190.095z"/>
			<path fill="#06BCD4" d="M786.826,165.521c0,13.212,5.733,20.988,17.193,20.988c4.68,0,8.692-1.229,12.798-3.276l0.958,3.585
				c-3.82,2.047-8.979,3.479-14.327,3.479c-13.562,0-20.822-11.058-20.822-25.499c0-14.742,7.354-25.085,19.199-25.085
				c10.314,0,16.526,7.574,16.526,19.964c0,1.943-0.191,3.79-0.48,5.835h-31.045V165.521L786.826,165.521z M814.144,161.73
				c0.764-11.466-3.822-18.436-12.606-18.436c-9.742,0-14.712,9.935-14.712,18.436H814.144z"/>
			<path fill="#06BCD4" d="M834.016,148.112c3.726-5.219,8.788-8.395,14.9-8.395c6.208,0,10.603,3.685,13.182,9.521
				c3.724-5.223,9.072-9.521,16.714-9.521c11.271,0,16.046,10.855,16.046,23.654v25.9h-4.203v-25.188
				c0-11.159-2.769-20.477-12.512-20.477c-6.59,0-10.791,3.894-14.9,8.907c1.052,3.175,1.339,6.86,1.339,10.856v25.9h-4.203v-25.188
				c0-11.159-2.96-20.477-12.511-20.477c-4.967,0-10.03,3.894-13.563,8.501v37.163h-4.203v-48.533h3.916v7.373H834.016z"/>
			<path fill="#06BCD4" d="M916.937,190.299c-4.011,0-9.742-1.126-12.896-2.769l0.861-3.891c4.012,1.843,8.023,2.765,12.034,2.765
				c6.876,0,12.034-3.379,12.034-9.623c0-5.94-5.539-8.702-10.795-11.164c-7.163-3.277-13.467-6.551-13.467-13.924
				c0-7.678,5.729-11.98,13.848-11.98c4.775,0,8.979,1.023,12.517,3.175l-0.957,3.788c-4.109-2.05-7.548-3.075-11.651-3.075
				c-6.112,0-9.553,2.771-9.553,7.993c0,5.527,5.063,7.367,10.41,10.136c4.967,2.451,13.85,5.529,13.85,14.949
				C933.172,184.564,926.296,190.299,916.937,190.299z"/>
		</g>
	</g>
</g>
<g>
	<path fill="#06BCD4" d="M414.684,219.007h-7.861v21.037h-4.99v-21.037h-7.827v-3.846h20.679V219.007z"/>
	<path fill="#06BCD4" d="M422.237,223.809l0.051,0.017c0.569-0.831,1.267-1.475,2.094-1.931c0.826-0.455,1.757-0.684,2.794-0.684
		c1.971,0,3.495,0.627,4.571,1.88c1.077,1.254,1.615,3.247,1.615,5.981v10.972h-4.99v-11.006c0-1.458-0.248-2.48-0.743-3.067
		c-0.496-0.587-1.256-0.88-2.282-0.88c-0.707,0-1.313,0.119-1.82,0.358c-0.507,0.239-0.938,0.587-1.291,1.042v13.553h-4.99v-26.66
		h4.99V223.809z"/>
	<path fill="#06BCD4" d="M445.309,240.386c-2.723,0-4.868-0.838-6.434-2.512c-1.567-1.676-2.35-3.856-2.35-6.546v-0.684
		c0-2.803,0.744-5.078,2.23-6.827c1.487-1.749,3.523-2.617,6.11-2.606c2.552,0,4.503,0.741,5.853,2.222
		c1.351,1.481,2.025,3.526,2.025,6.135v2.718h-11.177c0.148,1.299,0.581,2.336,1.299,3.11c0.718,0.775,1.709,1.162,2.974,1.162
		c1.128,0,2.048-0.108,2.76-0.324c0.712-0.217,1.507-0.564,2.384-1.043l1.094,3.299c-0.741,0.558-1.687,1.014-2.837,1.367
		C448.088,240.209,446.778,240.386,445.309,240.386z M444.864,225.056c-0.946,0-1.683,0.351-2.213,1.052
		c-0.529,0.7-0.875,1.66-1.034,2.88h6.238v-0.445c0-1.082-0.242-1.934-0.727-2.555C446.644,225.368,445.89,225.056,444.864,225.056z
		"/>
	<path fill="#06BCD4" d="M483.898,219.007h-7.862v21.037h-4.99v-21.037h-7.827v-3.846h20.679V219.007z"/>
	<path fill="#06BCD4" d="M493.246,240.386c-2.723,0-4.867-0.838-6.434-2.512c-1.567-1.676-2.35-3.856-2.35-6.546v-0.684
		c0-2.803,0.743-5.078,2.229-6.827c1.487-1.749,3.523-2.617,6.11-2.606c2.552,0,4.503,0.741,5.853,2.222
		c1.351,1.481,2.025,3.526,2.025,6.135v2.718h-11.177c0.147,1.299,0.581,2.336,1.299,3.11c0.718,0.775,1.709,1.162,2.974,1.162
		c1.128,0,2.048-0.108,2.76-0.324c0.712-0.217,1.507-0.564,2.384-1.043l1.094,3.299c-0.74,0.558-1.686,1.014-2.836,1.367
		C496.026,240.209,494.716,240.386,493.246,240.386z M492.802,225.056c-0.946,0-1.684,0.351-2.214,1.052
		c-0.529,0.7-0.874,1.66-1.034,2.88h6.238v-0.445c0-1.082-0.242-1.934-0.727-2.555C494.582,225.368,493.828,225.056,492.802,225.056
		z"/>
	<path fill="#06BCD4" d="M511.191,236.558c0.922,0,1.668-0.256,2.238-0.77c0.569-0.512,0.854-1.201,0.854-2.067h4.683
		c0,1.948-0.732,3.546-2.196,4.794c-1.464,1.247-3.29,1.871-5.478,1.871c-2.825,0-4.959-0.854-6.399-2.563
		c-1.441-1.709-2.162-3.959-2.162-6.751v-0.512c0-2.78,0.721-5.033,2.162-6.76c1.44-1.726,3.563-2.589,6.366-2.589
		c2.335,0,4.203,0.644,5.605,1.931c1.4,1.288,2.102,3.037,2.102,5.247h-4.683c0-0.968-0.273-1.766-0.82-2.393
		c-0.547-0.626-1.311-0.94-2.29-0.94c-1.333,0-2.242,0.496-2.726,1.487c-0.484,0.991-0.727,2.33-0.727,4.017v0.512
		c0,1.721,0.239,3.065,0.718,4.033C508.917,236.074,509.834,236.558,511.191,236.558z"/>
	<path fill="#06BCD4" d="M526.572,223.809l0.051,0.017c0.569-0.831,1.268-1.475,2.094-1.931c0.825-0.455,1.757-0.684,2.794-0.684
		c1.971,0,3.495,0.627,4.571,1.88c1.077,1.254,1.615,3.247,1.615,5.981v10.972h-4.99v-11.006c0-1.458-0.248-2.48-0.743-3.067
		c-0.496-0.587-1.257-0.88-2.282-0.88c-0.706,0-1.313,0.119-1.819,0.358c-0.508,0.239-0.938,0.587-1.29,1.042v13.553h-4.99v-26.66
		h4.99V223.809z"/>
	<path fill="#06BCD4" d="M546.019,221.553l0.223,2.563l0.051,0.018c0.604-0.935,1.348-1.655,2.23-2.162s1.889-0.761,3.017-0.761
		c1.902,0,3.369,0.572,4.4,1.718c1.031,1.145,1.547,2.999,1.547,5.563v11.553h-5.007v-11.535c0-1.266-0.246-2.15-0.735-2.658
		c-0.49-0.507-1.254-0.76-2.29-0.76c-0.684,0-1.279,0.134-1.786,0.401s-0.942,0.646-1.308,1.136v13.416h-4.99v-18.491H546.019z"/>
	<path fill="#06BCD4" d="M560.443,230.628c0-2.814,0.758-5.087,2.273-6.819c1.515-1.731,3.657-2.598,6.426-2.598
		c2.791,0,4.947,0.866,6.469,2.598c1.521,1.732,2.281,4.005,2.281,6.819v0.358c0,2.837-0.758,5.113-2.273,6.827
		c-1.515,1.715-3.663,2.572-6.442,2.572c-2.792,0-4.945-0.857-6.46-2.572c-1.516-1.714-2.273-3.99-2.273-6.827V230.628z
		 M565.417,230.987c0,1.721,0.29,3.079,0.872,4.076c0.58,0.997,1.543,1.495,2.888,1.495c1.31,0,2.259-0.501,2.846-1.504
		c0.586-1.002,0.88-2.358,0.88-4.067v-0.358c0-1.676-0.297-3.022-0.889-4.042c-0.593-1.02-1.55-1.53-2.871-1.53
		c-1.311,0-2.259,0.514-2.846,1.539s-0.88,2.369-0.88,4.033V230.987z"/>
	<path fill="#06BCD4" d="M586.214,240.044h-4.99v-26.66h4.99V240.044z"/>
	<path fill="#06BCD4" d="M589.546,230.628c0-2.814,0.758-5.087,2.273-6.819c1.515-1.731,3.657-2.598,6.426-2.598
		c2.791,0,4.947,0.866,6.469,2.598c1.521,1.732,2.281,4.005,2.281,6.819v0.358c0,2.837-0.758,5.113-2.273,6.827
		c-1.515,1.715-3.663,2.572-6.442,2.572c-2.792,0-4.945-0.857-6.46-2.572c-1.516-1.714-2.273-3.99-2.273-6.827V230.628z
		 M594.52,230.987c0,1.721,0.29,3.079,0.872,4.076c0.58,0.997,1.543,1.495,2.888,1.495c1.31,0,2.259-0.501,2.846-1.504
		c0.586-1.002,0.88-2.358,0.88-4.067v-0.358c0-1.676-0.297-3.022-0.889-4.042c-0.593-1.02-1.55-1.53-2.871-1.53
		c-1.311,0-2.259,0.514-2.846,1.539s-0.88,2.369-0.88,4.033V230.987z"/>
	<path fill="#06BCD4" d="M609.302,230.953c0-2.974,0.624-5.341,1.872-7.101c1.247-1.761,3.039-2.641,5.374-2.641
		c1.061,0,1.975,0.226,2.743,0.675c0.77,0.45,1.438,1.114,2.009,1.991l0.358-2.324H626v17.944c0,2.483-0.767,4.438-2.299,5.861
		c-1.532,1.425-3.672,2.137-6.417,2.137c-0.98,0-1.997-0.131-3.051-0.393c-1.054-0.263-2.042-0.627-2.965-1.094l0.923-3.401
		c0.774,0.364,1.549,0.649,2.324,0.854c0.774,0.205,1.601,0.308,2.479,0.308c1.344,0,2.347-0.379,3.008-1.137
		c0.66-0.758,0.99-1.809,0.99-3.153v-1.145l-0.051-0.018c-0.536,0.684-1.165,1.2-1.889,1.547c-0.724,0.348-1.569,0.521-2.537,0.521
		c-2.324,0-4.108-0.817-5.35-2.452c-1.242-1.635-1.863-3.843-1.863-6.622V230.953z M614.292,231.312
		c0,1.641,0.268,2.916,0.804,3.828c0.535,0.911,1.43,1.367,2.683,1.367c0.775,0,1.422-0.134,1.94-0.402
		c0.518-0.268,0.942-0.675,1.272-1.222v-8.032c-0.33-0.569-0.755-1.005-1.272-1.308c-0.519-0.302-1.153-0.452-1.905-0.452
		c-1.242,0-2.14,0.532-2.692,1.598s-0.829,2.486-0.829,4.264V231.312z"/>
	<path fill="#06BCD4" d="M636.493,232.286l0.222,1.128h0.052l3.571-11.86h5.367l-7.503,21.26c-0.468,1.321-1.153,2.436-2.06,3.341
		c-0.905,0.906-2.281,1.359-4.127,1.359c-0.422,0-0.81-0.035-1.162-0.104c-0.354-0.068-0.792-0.165-1.316-0.29l0.582-3.64
		c0.147,0.022,0.307,0.045,0.479,0.068c0.17,0.022,0.324,0.033,0.461,0.033c0.865,0,1.498-0.162,1.896-0.486
		c0.399-0.325,0.741-0.869,1.025-1.633l0.582-1.436L628,221.553h5.365L636.493,232.286z"/>
	<path fill="#06BCD4" d="M661.82,231.021v9.023h-4.99v-24.883h9.912c2.916,0,5.181,0.718,6.793,2.153s2.418,3.366,2.418,5.794
		c0,2.426-0.806,4.352-2.418,5.775c-1.612,1.425-3.877,2.137-6.793,2.137H661.82z M661.82,227.175h4.922
		c1.424,0,2.486-0.372,3.188-1.119c0.7-0.746,1.051-1.717,1.051-2.914c0-1.219-0.351-2.213-1.051-2.981
		c-0.701-0.77-1.764-1.153-3.188-1.153h-4.922V227.175z"/>
	<path fill="#06BCD4" d="M689.88,240.044c-0.147-0.342-0.279-0.701-0.393-1.076c-0.114-0.377-0.205-0.764-0.273-1.162
		c-0.581,0.785-1.281,1.412-2.102,1.879c-0.82,0.468-1.789,0.701-2.906,0.701c-1.846,0-3.292-0.492-4.34-1.479
		c-1.049-0.985-1.572-2.344-1.572-4.076c0-1.846,0.684-3.258,2.051-4.238c1.367-0.979,3.418-1.469,6.152-1.469h2.546v-1.471
		c0-0.911-0.23-1.605-0.692-2.084c-0.461-0.479-1.159-0.719-2.094-0.719c-0.843,0-1.483,0.191-1.922,0.573
		c-0.439,0.382-0.658,0.926-0.658,1.632h-4.973c0-1.651,0.714-3.039,2.145-4.161c1.43-1.122,3.341-1.684,5.733-1.684
		c2.256,0,4.064,0.55,5.426,1.649s2.042,2.709,2.042,4.828v7.639c0,0.889,0.065,1.706,0.197,2.452
		c0.131,0.747,0.339,1.502,0.623,2.265H689.88z M685.557,236.712c0.763,0,1.449-0.16,2.06-0.479c0.609-0.319,1.085-0.729,1.427-1.23
		v-3.06h-2.546c-1.094,0-1.906,0.26-2.436,0.777c-0.53,0.519-0.795,1.165-0.795,1.94c0,0.626,0.202,1.125,0.606,1.495
		S684.839,236.712,685.557,236.712z"/>
	<path fill="#06BCD4" d="M707.757,225.962l-2.034-0.051c-0.752,0-1.364,0.145-1.837,0.436c-0.474,0.29-0.835,0.709-1.086,1.256
		v12.441h-4.973v-18.491h4.631l0.223,2.632l0.034,0.018c0.433-0.946,0.982-1.681,1.649-2.205c0.666-0.523,1.461-0.786,2.384-0.786
		c0.273,0,0.547,0.021,0.82,0.06c0.273,0.04,0.513,0.089,0.718,0.146L707.757,225.962z"/>
	<path fill="#06BCD4" d="M716.9,217.025v4.528h3.179v3.503H716.9v9.4c0,0.74,0.14,1.259,0.419,1.555
		c0.278,0.297,0.657,0.444,1.136,0.444c0.285,0,0.53-0.014,0.735-0.043c0.205-0.028,0.438-0.077,0.7-0.146l0.41,3.555
		c-0.443,0.172-0.926,0.309-1.443,0.41c-0.519,0.104-1.068,0.154-1.649,0.154c-1.732,0-3.045-0.464-3.939-1.393
		s-1.341-2.436-1.341-4.521v-9.417h-2.496v-3.503h2.496v-4.528H716.9z"/>
	<path fill="#06BCD4" d="M727.273,221.553l0.223,2.563l0.051,0.018c0.604-0.935,1.348-1.655,2.23-2.162s1.889-0.761,3.017-0.761
		c1.902,0,3.369,0.572,4.4,1.718c1.031,1.145,1.547,2.999,1.547,5.563v11.553h-5.007v-11.535c0-1.266-0.246-2.15-0.735-2.658
		c-0.49-0.507-1.254-0.76-2.29-0.76c-0.684,0-1.279,0.134-1.786,0.401s-0.942,0.646-1.308,1.136v13.416h-4.99v-18.491H727.273z"/>
	<path fill="#06BCD4" d="M750.652,240.386c-2.723,0-4.867-0.838-6.434-2.512c-1.567-1.676-2.35-3.856-2.35-6.546v-0.684
		c0-2.803,0.743-5.078,2.229-6.827c1.487-1.749,3.523-2.617,6.11-2.606c2.552,0,4.503,0.741,5.853,2.222
		c1.351,1.481,2.025,3.526,2.025,6.135v2.718H746.91c0.147,1.299,0.581,2.336,1.299,3.11c0.718,0.775,1.709,1.162,2.974,1.162
		c1.128,0,2.048-0.108,2.76-0.324c0.712-0.217,1.507-0.564,2.384-1.043l1.094,3.299c-0.74,0.558-1.686,1.014-2.836,1.367
		C753.432,240.209,752.123,240.386,750.652,240.386z M750.208,225.056c-0.946,0-1.684,0.351-2.214,1.052
		c-0.529,0.7-0.874,1.66-1.034,2.88h6.238v-0.445c0-1.082-0.242-1.934-0.727-2.555C751.988,225.368,751.234,225.056,750.208,225.056
		z"/>
	<path fill="#06BCD4" d="M770.921,225.962l-2.034-0.051c-0.752,0-1.364,0.145-1.837,0.436c-0.474,0.29-0.835,0.709-1.086,1.256
		v12.441h-4.973v-18.491h4.631l0.223,2.632l0.034,0.018c0.433-0.946,0.982-1.681,1.649-2.205c0.666-0.523,1.461-0.786,2.384-0.786
		c0.273,0,0.547,0.021,0.82,0.06c0.273,0.04,0.513,0.089,0.718,0.146L770.921,225.962z"/>
	<path fill="#06BCD4" d="M791.583,226.732l5.486-11.57h5.469l-8.528,16.133v8.75h-4.974v-9.006l-8.408-15.877h5.469L791.583,226.732
		z"/>
	<path fill="#06BCD4" d="M802.708,230.628c0-2.814,0.758-5.087,2.273-6.819c1.515-1.731,3.657-2.598,6.426-2.598
		c2.791,0,4.947,0.866,6.469,2.598c1.521,1.732,2.281,4.005,2.281,6.819v0.358c0,2.837-0.758,5.113-2.273,6.827
		c-1.515,1.715-3.663,2.572-6.442,2.572c-2.792,0-4.945-0.857-6.46-2.572c-1.516-1.714-2.273-3.99-2.273-6.827V230.628z
		 M807.682,230.987c0,1.721,0.29,3.079,0.872,4.076c0.58,0.997,1.543,1.495,2.888,1.495c1.31,0,2.259-0.501,2.846-1.504
		c0.586-1.002,0.88-2.358,0.88-4.067v-0.358c0-1.676-0.297-3.022-0.889-4.042c-0.593-1.02-1.55-1.53-2.871-1.53
		c-1.311,0-2.259,0.514-2.846,1.539s-0.88,2.369-0.88,4.033V230.987z"/>
	<path fill="#06BCD4" d="M834.513,237.703c-0.604,0.878-1.333,1.545-2.188,2s-1.852,0.684-2.99,0.684
		c-1.982,0-3.516-0.609-4.598-1.828c-1.083-1.22-1.623-3.168-1.623-5.846v-11.159h4.973v11.194c0,1.378,0.223,2.35,0.666,2.913
		c0.445,0.564,1.122,0.847,2.034,0.847c0.809,0,1.492-0.126,2.051-0.377c0.558-0.25,1.025-0.626,1.401-1.127v-13.45h4.99v18.491
		h-4.393L834.513,237.703z"/>
	<path fill="#06BCD4" d="M871.238,219.007h-7.861v21.037h-4.99v-21.037h-7.826v-3.846h20.678V219.007z"/>
	<path fill="#06BCD4" d="M882.74,225.962l-2.033-0.051c-0.752,0-1.364,0.145-1.837,0.436c-0.474,0.29-0.835,0.709-1.085,1.256
		v12.441h-4.974v-18.491h4.632l0.222,2.632l0.034,0.018c0.433-0.946,0.982-1.681,1.649-2.205c0.666-0.523,1.461-0.786,2.384-0.786
		c0.273,0,0.547,0.021,0.82,0.06c0.273,0.04,0.513,0.089,0.718,0.146L882.74,225.962z"/>
	<path fill="#06BCD4" d="M896.805,237.703c-0.604,0.878-1.333,1.545-2.188,2s-1.852,0.684-2.991,0.684
		c-1.982,0-3.515-0.609-4.597-1.828c-1.083-1.22-1.624-3.168-1.624-5.846v-11.159h4.974v11.194c0,1.378,0.222,2.35,0.667,2.913
		c0.443,0.564,1.121,0.847,2.033,0.847c0.809,0,1.492-0.126,2.051-0.377c0.558-0.25,1.025-0.626,1.401-1.127v-13.45h4.99v18.491
		h-4.392L896.805,237.703z"/>
	<path fill="#06BCD4" d="M915.279,234.952c0-0.558-0.259-1.031-0.777-1.419c-0.519-0.387-1.507-0.74-2.965-1.059
		c-2.222-0.456-3.879-1.108-4.973-1.957s-1.641-2.043-1.641-3.58c0-1.63,0.66-2.991,1.982-4.085c1.321-1.094,3.121-1.641,5.4-1.641
		c2.403,0,4.298,0.55,5.682,1.649c1.385,1.1,2.076,2.532,2.076,4.298h-4.973c0-0.752-0.23-1.358-0.692-1.82
		c-0.461-0.461-1.159-0.692-2.093-0.692c-0.82,0-1.459,0.194-1.914,0.582c-0.456,0.387-0.684,0.883-0.684,1.486
		c0,0.581,0.235,1.049,0.709,1.401c0.473,0.354,1.461,0.678,2.965,0.974c2.324,0.468,4.027,1.132,5.109,1.991
		c1.083,0.86,1.624,2.083,1.624,3.666c0,1.698-0.698,3.063-2.094,4.093c-1.396,1.031-3.29,1.547-5.683,1.547
		c-2.518,0-4.48-0.618-5.887-1.854c-1.407-1.235-2.111-2.691-2.111-4.366h4.717c0.035,1.003,0.354,1.721,0.957,2.153
		c0.604,0.434,1.413,0.649,2.428,0.649c0.934,0,1.641-0.177,2.119-0.529C915.041,236.085,915.279,235.59,915.279,234.952z"/>
	<path fill="#06BCD4" d="M929.276,217.025v4.528h3.179v3.503h-3.179v9.4c0,0.74,0.14,1.259,0.419,1.555
		c0.278,0.297,0.658,0.444,1.137,0.444c0.284,0,0.529-0.014,0.734-0.043c0.205-0.028,0.438-0.077,0.701-0.146l0.41,3.555
		c-0.445,0.172-0.927,0.309-1.444,0.41c-0.519,0.104-1.068,0.154-1.649,0.154c-1.732,0-3.045-0.464-3.939-1.393
		s-1.342-2.436-1.342-4.521v-9.417h-2.494v-3.503h2.494v-4.528H929.276z"/>
</g>
<g>
	<path fill="#E85014" d="M72.169,219.007h-7.861v21.037h-4.99v-21.037h-7.827v-3.846h20.679V219.007z"/>
	<path fill="#E85014" d="M90.558,229.107H80.253v7.109h12.048v3.828H75.263v-24.883h17.004v3.846H80.253v6.254h10.305V229.107z"/>
	<path fill="#E85014" d="M108.69,234.61h-8.733l-1.692,5.435h-5.042l8.562-24.883h5.11l8.528,24.883h-5.042L108.69,234.61z
		 M101.154,230.765h6.34l-3.145-10.084h-0.051L101.154,230.765z"/>
	<path fill="#E85014" d="M124.447,215.162l6.375,18.423h0.051l6.409-18.423h6.527v24.883h-4.99v-7.417l0.496-11.159l-0.051-0.018
		l-6.734,18.594h-3.35l-6.699-18.525l-0.051,0.018l0.496,11.091v7.417h-4.99v-24.883H124.447z"/>
	<path fill="#E85014" d="M163.702,215.162l6.375,18.423h0.051l6.409-18.423h6.528v24.883h-4.99v-7.417l0.496-11.159l-0.052-0.018
		l-6.733,18.594h-3.35l-6.699-18.525l-0.051,0.018l0.495,11.091v7.417h-4.99v-24.883H163.702z"/>
	<path fill="#E85014" d="M201.368,234.61h-8.732l-1.692,5.435h-5.042l8.563-24.883h5.109l8.528,24.883h-5.042L201.368,234.61z
		 M193.831,230.765h6.341l-3.145-10.084h-0.052L193.831,230.765z"/>
	<path fill="#E85014" d="M215.604,236.216h11.074v3.828h-16.064v-24.883h4.99V236.216z"/>
	<path fill="#E85014" d="M243.427,234.61h-8.732l-1.692,5.435h-5.042l8.563-24.883h5.109l8.528,24.883h-5.042L243.427,234.61z
		 M235.89,230.765h6.341l-3.145-10.084h-0.052L235.89,230.765z"/>
	<path fill="#E85014" d="M258.858,226.732l5.486-11.57h5.469l-8.528,16.133v8.75h-4.974v-9.006l-8.408-15.877h5.469L258.858,226.732
		z"/>
	<path fill="#E85014" d="M285.28,233.55c0-0.979-0.331-1.752-0.992-2.315c-0.66-0.564-1.856-1.108-3.588-1.632
		c-3.02-0.866-5.272-1.874-6.76-3.025c-1.486-1.15-2.23-2.763-2.23-4.836c0-2.074,0.857-3.749,2.572-5.025
		c1.715-1.275,3.945-1.914,6.691-1.914c2.791,0,5.038,0.719,6.741,2.154s2.556,3.27,2.556,5.502h-4.99
		c0-1.173-0.377-2.11-1.129-2.811c-0.752-0.701-1.834-1.051-3.246-1.051c-1.367,0-2.41,0.293-3.128,0.88s-1.077,1.348-1.077,2.281
		c0,0.866,0.382,1.562,1.146,2.085c0.763,0.524,2.119,1.094,4.067,1.709c2.791,0.786,4.882,1.789,6.271,3.008
		c1.391,1.22,2.086,2.871,2.086,4.956c0,2.177-0.827,3.868-2.479,5.075c-1.652,1.208-3.886,1.813-6.699,1.813
		c-2.769,0-5.15-0.689-7.144-2.068c-1.994-1.378-2.991-3.378-2.991-5.998h4.99c0,1.515,0.445,2.608,1.334,3.281
		c0.889,0.672,2.158,1.008,3.811,1.008c1.39,0,2.436-0.276,3.136-0.829C284.93,235.246,285.28,234.497,285.28,233.55z"/>
	<path fill="#E85014" d="M299.174,240.044h-4.99v-24.883h4.99V240.044z"/>
	<path fill="#E85014" d="M317.784,234.61h-8.732l-1.692,5.435h-5.042l8.563-24.883h5.109l8.528,24.883h-5.042L317.784,234.61z
		 M310.247,230.765h6.341l-3.145-10.084h-0.052L310.247,230.765z"/>
</g>
<path fill="#E85014" d="M31.392,201.412c0,0.455,0.032,0.996,0.087,1.422c0.565,3.771,3.452,6.783,7.124,7.533
	c0.589,0.114,1.198,0.19,1.815,0.19h0.064c0,1.884,0,13.661,0,16.155c0,0.81,0,1.609,0,2.384c0,0.462,0,0.925,0,1.368
	c0,4.623-1.125,8.271-2.826,11.181c-0.514,0.905-1.104,1.75-1.734,2.511c-2.261,2.762-5.014,4.655-7.569,5.992
	c-4.226,2.039-8.765,4.061-13.108,5.473c-4.317-1.512-8.917-3.312-13.131-5.473c-3.979-2.092-8.525-5.572-10.732-11.591
	c-0.374-1.003-0.683-2.075-0.914-3.231c-0.294-1.492-0.468-3.099-0.468-4.859c0-3.879,0-16.98,0-19.908
	c0.655-0.005,1.27-0.083,1.868-0.219c3.641-0.801,6.464-3.778,7.001-7.506c0.068-0.426,0.092-0.979,0.092-1.422H31.392"/>
<g>
	<path fill="#FFFFFF" d="M7.996,224.452c1.689-0.552,2.3-1.995,2.3-1.995H-2.072c-1.134,0.383-1.688,1.995-1.688,1.995h4.94
		l-2.055,7.798h3.729l1.985-7.798H7.996z"/>
	<path fill="#FFFFFF" d="M7.829,232.212l2.206-7.761c0,0,0.431-1.419,1.652-1.962h5.289l0.731,6.717l3.499-5.542
		c0,0,0.725-1.026,1.357-1.121h5.87l-2.953,9.713h-3.885l2.134-7.499l-4.27,6.676c0,0-0.443,0.631-0.926,0.823h-4.419l-0.877-7.429
		l-2.089,7.385H7.829L7.829,232.212z"/>
	<path fill="#FFFFFF" d="M21.707,221.107c3.733-0.391,5.585-1.623,5.232-3.714c-0.467-2.767-8.875-4.995-14.751,2.236
		c0.148-0.079,0.301-0.161,0.464-0.246c3.057-1.508,9.444-2.528,10.112-0.976C23.154,219.335,22.875,220.296,21.707,221.107z"/>
	<path fill="#FFFFFF" d="M26.902,220.009c1.091-0.337,2.282-0.598,3.535-0.598c1.771,0,3.033,0.314,3.803,0.555
		c-0.005-1.258-0.445-2.483-2.111-2.528C30.038,217.365,28.456,218.206,26.902,220.009z"/>
</g>
</svg>
