<?xml version="1.0" encoding="utf-8"?>
<!-- Generator: Adobe Illustrator 16.0.0, SVG Export Plug-In . SVG Version: 6.00 Build 0)  -->
<!DOCTYPE svg PUBLIC "-//W3C//DTD SVG 1.1//EN" "http://www.w3.org/Graphics/SVG/1.1/DTD/svg11.dtd">
<svg version="1.1" id="Layer_1" xmlns="http://www.w3.org/2000/svg" xmlns:xlink="http://www.w3.org/1999/xlink" x="0px" y="0px"
	 width="24px" height="24px" viewBox="0 0 24 24" enable-background="new 0 0 24 24" xml:space="preserve">
<g>
	<circle fill="#FF9700" cx="12" cy="12" r="12"/>
	<path fill="none" d="M3,3h18v18H3V3z"/>
	<path fill="#FFFFFF" d="M8.685,6.06L7.612,4.987c-1.8,1.373-2.985,3.487-3.09,5.888h1.5C6.135,8.888,7.155,7.147,8.685,6.06z
		 M17.979,10.875h1.5c-0.111-2.4-1.297-4.515-3.09-5.888L15.323,6.06C16.838,7.147,17.865,8.888,17.979,10.875z M16.5,11.25
		c0-2.302-1.23-4.23-3.375-4.74V6c0-0.623-0.502-1.125-1.125-1.125S10.875,5.377,10.875,6v0.51C8.723,7.02,7.5,8.94,7.5,11.25V15
		L6,16.5v0.75h12V16.5L16.5,15V11.25z M12,19.5c0.105,0,0.203-0.008,0.3-0.029c0.487-0.104,0.886-0.436,1.08-0.887
		c0.075-0.18,0.113-0.375,0.113-0.584h-3C10.5,18.824,11.167,19.5,12,19.5z"/>
</g>
</svg>
